<svg xmlns="http://www.w3.org/2000/svg" xmlns:xlink="http://www.w3.org/1999/xlink" width="2245" zoomAndPan="magnify" viewBox="0 0 1683.75 1190.250009" height="1587" preserveAspectRatio="xMidYMid meet" version="1.2"><defs><clipPath id="ab76fa2fec"><path d="M 0.40625 0 L 1683.09375 0 L 1683.09375 1189.5 L 0.40625 1189.5 Z M 0.40625 0 "/></clipPath><clipPath id="fe72da1491"><path d="M 0.40625 0 L 1682.667969 0 L 1682.667969 1189.199219 L 0.40625 1189.199219 Z M 0.40625 0 "/></clipPath><clipPath id="502c9c137a"><path d="M 0.40625 0 L 1682.667969 0 L 1682.667969 1189.5 L 0.40625 1189.5 Z M 0.40625 0 "/></clipPath></defs><g id="599f069ed6"><g clip-rule="nonzero" clip-path="url(#ab76fa2fec)"><path style=" stroke:none;fill-rule:nonzero;fill:#ffffff;fill-opacity:1;" d="M 0.40625 0 L 1683.09375 0 L 1683.09375 1189.5 L 0.40625 1189.5 Z M 0.40625 0 "/></g><g clip-rule="nonzero" clip-path="url(#fe72da1491)"><path style=" stroke:none;fill-rule:nonzero;fill:#c03221;fill-opacity:1;" d="M 0.40625 0 L 1682.667969 0 L 1682.667969 1189.199219 L 0.40625 1189.199219 Z M 0.40625 0 "/></g><g clip-rule="nonzero" clip-path="url(#502c9c137a)"><path style=" stroke:none;fill-rule:nonzero;fill:#e7bf58;fill-opacity:1;" d="M 1633.089844 12.578125 C 1631.84375 -10.339844 1616.683594 -29.601562 1595.941406 -36.921875 L 1558.960938 -36.921875 C 1538.214844 -29.601562 1523.058594 -10.339844 1521.8125 12.578125 C 1498.898438 13.820312 1479.632812 28.980469 1472.316406 49.722656 C 1464.996094 28.980469 1445.714844 13.820312 1422.816406 12.578125 C 1421.574219 -10.339844 1406.414062 -29.601562 1385.667969 -36.921875 L 1348.691406 -36.921875 C 1327.945312 -29.601562 1312.785156 -10.339844 1311.542969 12.578125 C 1288.625 13.820312 1269.363281 28.980469 1262.042969 49.722656 C 1254.726562 28.980469 1235.445312 13.820312 1212.546875 12.578125 C 1211.300781 -10.339844 1196.144531 -29.601562 1175.398438 -36.921875 L 1138.417969 -36.921875 C 1117.675781 -29.601562 1102.515625 -10.339844 1101.269531 12.578125 C 1078.355469 13.820312 1059.09375 28.980469 1051.773438 49.722656 C 1044.457031 28.980469 1025.175781 13.820312 1002.277344 12.578125 C 1001.03125 -10.339844 985.875 -29.601562 965.128906 -36.921875 L 928.148438 -36.921875 C 907.40625 -29.601562 892.246094 -10.339844 891 12.578125 C 868.085938 13.820312 848.820312 28.980469 841.503906 49.722656 C 834.183594 28.980469 814.921875 13.820312 792.007812 12.578125 C 790.761719 -10.339844 775.601562 -29.601562 754.859375 -36.921875 L 717.878906 -36.921875 C 697.132812 -29.601562 681.976562 -10.339844 680.730469 12.578125 C 657.816406 13.820312 638.550781 28.980469 631.234375 49.722656 C 623.914062 28.980469 604.652344 13.820312 581.734375 12.578125 C 580.492188 -10.339844 565.332031 -29.601562 544.589844 -36.921875 L 507.609375 -36.921875 C 486.863281 -29.601562 471.703125 -10.339844 470.460938 12.578125 C 447.546875 13.820312 428.28125 28.980469 420.964844 49.722656 C 413.644531 28.980469 394.378906 13.820312 371.464844 12.578125 C 370.222656 -10.339844 355.0625 -29.601562 334.316406 -36.921875 L 297.335938 -36.921875 C 276.59375 -29.601562 261.433594 -10.339844 260.191406 12.578125 C 237.273438 13.820312 218.011719 28.980469 210.691406 49.722656 C 203.375 28.980469 184.109375 13.820312 161.195312 12.578125 C 159.949219 -10.339844 144.792969 -29.601562 124.046875 -36.921875 L 87.066406 -36.921875 C 66.324219 -29.601562 51.164062 -10.339844 49.917969 12.578125 C 27.003906 13.820312 7.742188 28.980469 0.421875 49.722656 L 0.421875 86.703125 C 7.742188 107.449219 27.003906 122.609375 49.917969 123.851562 C 51.164062 146.765625 66.324219 166.03125 87.066406 173.347656 C 66.324219 180.667969 51.164062 199.933594 49.917969 222.847656 C 27.003906 224.089844 7.742188 239.25 0.421875 259.996094 L 0.421875 296.976562 C 7.742188 317.71875 27.003906 332.878906 49.917969 334.121094 C 51.164062 357.039062 66.324219 376.300781 87.066406 383.621094 C 66.324219 390.9375 51.164062 410.203125 49.917969 433.117188 C 27.003906 434.363281 7.742188 449.519531 0.421875 470.265625 L 0.421875 507.246094 C 7.742188 527.988281 27.003906 543.148438 49.917969 544.394531 C 51.164062 567.308594 66.324219 586.570312 87.066406 593.890625 C 66.324219 601.207031 51.164062 620.472656 49.917969 643.386719 C 27.003906 644.632812 7.742188 659.792969 0.421875 680.535156 L 0.421875 717.515625 C 7.742188 738.261719 27.003906 753.417969 49.917969 754.664062 C 51.164062 777.578125 66.324219 796.84375 87.066406 804.160156 C 66.324219 811.480469 51.164062 830.761719 49.917969 853.675781 C 27.003906 854.917969 7.742188 870.078125 0.421875 890.824219 L 0.421875 927.800781 C 7.742188 948.546875 27.003906 963.707031 49.917969 964.949219 C 51.164062 987.867188 66.324219 1007.144531 87.066406 1014.464844 C 66.324219 1021.785156 51.164062 1041.0625 49.917969 1063.980469 C 27.003906 1065.222656 7.742188 1080.382812 0.421875 1101.125 L 0.421875 1138.105469 C 7.742188 1158.851562 27.003906 1174.011719 49.917969 1175.253906 C 51.164062 1198.167969 66.324219 1217.449219 87.066406 1224.769531 C 66.324219 1232.085938 51.164062 1251.367188 49.917969 1274.28125 C 27.003906 1275.527344 7.742188 1290.6875 0.421875 1311.429688 L 0.421875 1348.410156 C 7.742188 1369.15625 27.003906 1384.3125 49.917969 1385.558594 C 51.164062 1408.472656 66.324219 1427.753906 87.066406 1435.074219 C 66.324219 1442.390625 51.164062 1461.671875 49.917969 1484.585938 C 27.003906 1485.832031 7.742188 1500.992188 0.421875 1521.734375 L 0.421875 1558.714844 C 7.742188 1579.460938 27.003906 1594.617188 49.917969 1595.863281 C 51.164062 1618.777344 66.324219 1638.058594 87.066406 1645.375 L 124.046875 1645.375 C 144.792969 1638.058594 159.949219 1618.777344 161.195312 1595.863281 C 184.109375 1594.617188 203.375 1579.460938 210.691406 1558.714844 C 218.011719 1579.460938 237.273438 1594.617188 260.191406 1595.863281 C 261.433594 1618.777344 276.59375 1638.058594 297.335938 1645.375 L 334.316406 1645.375 C 355.0625 1638.058594 370.222656 1618.777344 371.464844 1595.863281 C 394.378906 1594.617188 413.644531 1579.460938 420.964844 1558.714844 C 428.28125 1579.460938 447.546875 1594.617188 470.460938 1595.863281 C 471.703125 1618.777344 486.863281 1638.058594 507.609375 1645.375 L 544.589844 1645.375 C 565.332031 1638.058594 580.492188 1618.777344 581.734375 1595.863281 C 604.652344 1594.617188 623.914062 1579.460938 631.234375 1558.714844 C 638.550781 1579.460938 657.816406 1594.617188 680.730469 1595.863281 C 681.976562 1618.777344 697.132812 1638.058594 717.878906 1645.375 L 754.859375 1645.375 C 775.601562 1638.058594 790.761719 1618.777344 792.007812 1595.863281 C 814.921875 1594.617188 834.183594 1579.460938 841.503906 1558.714844 C 848.820312 1579.460938 868.101562 1594.617188 891 1595.863281 C 892.246094 1618.777344 907.40625 1638.058594 928.148438 1645.375 L 965.128906 1645.375 C 985.875 1638.058594 1001.03125 1618.777344 1002.277344 1595.863281 C 1025.191406 1594.617188 1044.457031 1579.460938 1051.773438 1558.714844 C 1059.09375 1579.460938 1078.375 1594.617188 1101.269531 1595.863281 C 1102.515625 1618.777344 1117.675781 1638.058594 1138.417969 1645.375 L 1175.398438 1645.375 C 1196.144531 1638.058594 1211.300781 1618.777344 1212.546875 1595.863281 C 1235.460938 1594.617188 1254.726562 1579.460938 1262.042969 1558.714844 C 1269.363281 1579.460938 1288.644531 1594.617188 1311.542969 1595.863281 C 1312.785156 1618.777344 1327.945312 1638.058594 1348.691406 1645.375 L 1385.667969 1645.375 C 1406.414062 1638.058594 1421.574219 1618.777344 1422.816406 1595.863281 C 1445.730469 1594.617188 1464.996094 1579.460938 1472.316406 1558.714844 C 1479.632812 1579.460938 1498.914062 1594.617188 1521.8125 1595.863281 C 1523.058594 1618.777344 1538.214844 1638.058594 1558.960938 1645.375 L 1595.941406 1645.375 C 1616.683594 1638.058594 1631.84375 1618.777344 1633.089844 1595.863281 C 1656.003906 1594.617188 1675.265625 1579.460938 1682.585938 1558.714844 L 1682.585938 1521.734375 C 1675.265625 1500.992188 1655.984375 1485.832031 1633.089844 1484.585938 C 1631.84375 1461.671875 1616.683594 1442.390625 1595.941406 1435.074219 C 1616.683594 1427.753906 1631.84375 1408.472656 1633.089844 1385.558594 C 1656.003906 1384.3125 1675.265625 1369.15625 1682.585938 1348.410156 L 1682.585938 1311.429688 C 1675.265625 1290.6875 1655.984375 1275.527344 1633.089844 1274.28125 C 1631.84375 1251.367188 1616.683594 1232.085938 1595.941406 1224.769531 C 1616.683594 1217.449219 1631.84375 1198.167969 1633.089844 1175.253906 C 1656.003906 1174.011719 1675.265625 1158.851562 1682.585938 1138.105469 L 1682.585938 1101.125 C 1675.265625 1080.382812 1655.984375 1065.222656 1633.089844 1063.980469 C 1631.84375 1041.0625 1616.683594 1021.785156 1595.941406 1014.464844 C 1616.683594 1007.144531 1631.84375 987.867188 1633.089844 964.949219 C 1656.003906 963.707031 1675.265625 948.546875 1682.585938 927.800781 L 1682.585938 890.824219 C 1675.265625 870.078125 1655.984375 854.917969 1633.089844 853.675781 C 1631.84375 830.761719 1616.683594 811.496094 1595.941406 804.160156 C 1616.683594 796.84375 1631.84375 777.578125 1633.089844 754.664062 C 1656.003906 753.417969 1675.265625 738.261719 1682.585938 717.515625 L 1682.585938 680.535156 C 1675.265625 659.792969 1655.984375 644.632812 1633.089844 643.386719 C 1631.84375 620.472656 1616.683594 601.210938 1595.941406 593.890625 C 1616.683594 586.570312 1631.84375 567.308594 1633.089844 544.394531 C 1656.003906 543.148438 1675.265625 527.988281 1682.585938 507.246094 L 1682.585938 470.265625 C 1675.265625 449.519531 1655.984375 434.363281 1633.089844 433.117188 C 1631.84375 410.203125 1616.683594 390.9375 1595.941406 383.621094 C 1616.683594 376.300781 1631.84375 357.039062 1633.089844 334.121094 C 1656.003906 332.878906 1675.265625 317.71875 1682.585938 296.976562 L 1682.585938 259.996094 C 1675.265625 239.25 1655.984375 224.09375 1633.089844 222.847656 C 1631.84375 199.933594 1616.683594 180.667969 1595.941406 173.351562 C 1616.683594 166.03125 1631.84375 146.765625 1633.089844 123.851562 C 1656.003906 122.609375 1675.265625 107.449219 1682.585938 86.703125 L 1682.585938 49.722656 C 1675.265625 28.980469 1655.984375 13.820312 1633.089844 12.578125 Z M 1521.796875 123.871094 C 1523.039062 146.785156 1538.199219 166.046875 1558.941406 173.367188 C 1538.199219 180.683594 1523.039062 199.949219 1521.796875 222.863281 C 1498.878906 224.109375 1479.617188 239.265625 1472.296875 260.011719 C 1464.980469 239.265625 1445.699219 224.109375 1422.800781 222.863281 C 1421.554688 199.949219 1406.398438 180.683594 1385.652344 173.367188 C 1406.398438 166.046875 1421.554688 146.785156 1422.800781 123.871094 C 1445.714844 122.625 1464.980469 107.464844 1472.296875 86.722656 C 1479.617188 107.464844 1498.898438 122.625 1521.796875 123.871094 Z M 259.953125 334.191406 C 261.199219 357.105469 276.359375 376.367188 297.101562 383.6875 C 276.359375 391.007812 261.199219 410.269531 259.953125 433.183594 C 237.039062 434.429688 217.777344 449.589844 210.457031 470.332031 C 203.136719 449.589844 183.875 434.429688 160.960938 433.183594 C 159.714844 410.269531 144.554688 391.007812 123.8125 383.6875 C 144.554688 376.367188 159.714844 357.105469 160.960938 334.191406 C 183.875 332.945312 203.136719 317.785156 210.457031 297.042969 C 217.777344 317.785156 237.039062 332.945312 259.953125 334.191406 Z M 470.257812 334.191406 C 471.503906 357.105469 486.660156 376.367188 507.40625 383.6875 C 486.660156 391.007812 471.503906 410.269531 470.257812 433.183594 C 447.34375 434.429688 428.078125 449.589844 420.761719 470.332031 C 413.441406 449.589844 394.179688 434.429688 371.265625 433.183594 C 370.019531 410.269531 354.859375 391.007812 334.117188 383.6875 C 354.859375 376.367188 370.019531 357.105469 371.265625 334.191406 C 394.179688 332.945312 413.441406 317.785156 420.761719 297.042969 C 428.078125 317.785156 447.34375 332.945312 470.257812 334.191406 Z M 680.5625 334.191406 C 681.808594 357.105469 696.964844 376.367188 717.710938 383.6875 C 696.964844 391.007812 681.808594 410.269531 680.5625 433.183594 C 657.648438 434.429688 638.382812 449.589844 631.066406 470.332031 C 623.746094 449.589844 604.484375 434.429688 581.566406 433.183594 C 580.324219 410.269531 565.164062 391.007812 544.417969 383.6875 C 565.164062 376.367188 580.324219 357.105469 581.566406 334.191406 C 604.484375 332.945312 623.746094 317.785156 631.066406 297.042969 C 638.382812 317.785156 657.648438 332.945312 680.5625 334.191406 Z M 890.867188 334.191406 C 892.109375 357.105469 907.269531 376.367188 928.015625 383.6875 C 907.269531 391.007812 892.109375 410.269531 890.867188 433.183594 C 867.953125 434.429688 848.6875 449.589844 841.367188 470.332031 C 834.050781 449.589844 814.785156 434.429688 791.871094 433.183594 C 790.625 410.269531 775.46875 391.007812 754.722656 383.6875 C 775.46875 376.367188 790.625 357.105469 791.871094 334.191406 C 814.785156 332.945312 834.050781 317.785156 841.367188 297.042969 C 848.6875 317.785156 867.96875 332.945312 890.867188 334.191406 Z M 1101.171875 334.191406 C 1102.414062 357.105469 1117.574219 376.367188 1138.316406 383.6875 C 1117.574219 391.007812 1102.414062 410.269531 1101.171875 433.183594 C 1078.253906 434.429688 1058.992188 449.589844 1051.671875 470.332031 C 1044.355469 449.589844 1025.074219 434.429688 1002.175781 433.183594 C 1000.929688 410.269531 985.773438 391.007812 965.027344 383.6875 C 985.773438 376.367188 1000.929688 357.105469 1002.175781 334.191406 C 1025.089844 332.945312 1044.355469 317.785156 1051.671875 297.042969 C 1058.992188 317.785156 1078.273438 332.945312 1101.171875 334.191406 Z M 1311.472656 334.191406 C 1312.71875 357.105469 1327.878906 376.367188 1348.621094 383.6875 C 1327.878906 391.007812 1312.71875 410.269531 1311.472656 433.183594 C 1288.558594 434.429688 1269.296875 449.589844 1261.976562 470.332031 C 1254.660156 449.589844 1235.378906 434.429688 1212.480469 433.183594 C 1211.234375 410.269531 1196.078125 391.007812 1175.332031 383.6875 C 1196.078125 376.367188 1211.234375 357.105469 1212.480469 334.191406 C 1235.394531 332.945312 1254.660156 317.785156 1261.976562 297.042969 C 1269.296875 317.785156 1288.578125 332.945312 1311.472656 334.191406 Z M 470.257812 544.496094 C 471.503906 567.410156 486.660156 586.671875 507.40625 593.992188 C 486.660156 601.308594 471.503906 620.574219 470.257812 643.488281 C 447.34375 644.734375 428.078125 659.890625 420.761719 680.636719 C 413.441406 659.890625 394.179688 644.734375 371.265625 643.488281 C 370.019531 620.574219 354.859375 601.308594 334.117188 593.992188 C 354.859375 586.671875 370.019531 567.410156 371.265625 544.496094 C 394.179688 543.25 413.441406 528.089844 420.761719 507.347656 C 428.078125 528.089844 447.34375 543.25 470.257812 544.496094 Z M 680.5625 544.496094 C 681.808594 567.410156 696.964844 586.671875 717.710938 593.992188 C 696.964844 601.308594 681.808594 620.574219 680.5625 643.488281 C 657.648438 644.734375 638.382812 659.890625 631.066406 680.636719 C 623.746094 659.890625 604.484375 644.734375 581.566406 643.488281 C 580.324219 620.574219 565.164062 601.308594 544.417969 593.992188 C 565.164062 586.671875 580.324219 567.410156 581.566406 544.496094 C 604.484375 543.25 623.746094 528.089844 631.066406 507.347656 C 638.382812 528.089844 657.648438 543.25 680.5625 544.496094 Z M 890.867188 544.496094 C 892.109375 567.410156 907.269531 586.671875 928.015625 593.992188 C 907.269531 601.308594 892.109375 620.574219 890.867188 643.488281 C 867.953125 644.734375 848.6875 659.890625 841.367188 680.636719 C 834.050781 659.890625 814.785156 644.734375 791.871094 643.488281 C 790.625 620.574219 775.46875 601.308594 754.722656 593.992188 C 775.46875 586.671875 790.625 567.410156 791.871094 544.496094 C 814.785156 543.25 834.050781 528.089844 841.367188 507.347656 C 848.6875 528.089844 867.96875 543.25 890.867188 544.496094 Z M 1101.171875 544.496094 C 1102.414062 567.410156 1117.574219 586.671875 1138.316406 593.992188 C 1117.574219 601.308594 1102.414062 620.574219 1101.171875 643.488281 C 1078.253906 644.734375 1058.992188 659.890625 1051.671875 680.636719 C 1044.355469 659.890625 1025.074219 644.734375 1002.175781 643.488281 C 1000.929688 620.574219 985.773438 601.308594 965.027344 593.992188 C 985.773438 586.671875 1000.929688 567.410156 1002.175781 544.496094 C 1025.089844 543.25 1044.355469 528.089844 1051.671875 507.347656 C 1058.992188 528.089844 1078.273438 543.25 1101.171875 544.496094 Z M 1311.472656 544.496094 C 1312.71875 567.410156 1327.878906 586.671875 1348.621094 593.992188 C 1327.878906 601.308594 1312.71875 620.574219 1311.472656 643.488281 C 1288.558594 644.734375 1269.296875 659.890625 1261.976562 680.636719 C 1254.660156 659.890625 1235.378906 644.734375 1212.480469 643.488281 C 1211.234375 620.574219 1196.078125 601.308594 1175.332031 593.992188 C 1196.078125 586.671875 1211.234375 567.410156 1212.480469 544.496094 C 1235.394531 543.25 1254.660156 528.089844 1261.976562 507.347656 C 1269.296875 528.089844 1288.578125 543.25 1311.472656 544.496094 Z M 470.257812 754.796875 C 471.503906 777.714844 486.660156 796.976562 507.40625 804.296875 C 486.660156 811.613281 471.503906 830.894531 470.257812 853.808594 C 447.34375 855.054688 428.078125 870.214844 420.761719 890.957031 C 413.441406 870.214844 394.179688 855.054688 371.265625 853.808594 C 370.019531 830.894531 354.859375 811.628906 334.117188 804.296875 C 354.859375 796.976562 370.019531 777.714844 371.265625 754.796875 C 394.179688 753.554688 413.441406 738.394531 420.761719 717.648438 C 428.078125 738.394531 447.34375 753.554688 470.257812 754.796875 Z M 423.90625 699.144531 C 423.90625 671.886719 446.082031 649.714844 473.335938 649.714844 C 475.085938 649.714844 476.5 648.300781 476.5 646.550781 C 476.5 619.296875 498.675781 597.121094 525.929688 597.121094 C 553.183594 597.121094 575.359375 619.296875 575.359375 646.550781 C 575.359375 648.300781 576.773438 649.714844 578.523438 649.714844 C 605.777344 649.714844 627.953125 671.886719 627.953125 699.144531 C 627.953125 726.398438 605.777344 748.574219 578.523438 748.574219 C 576.773438 748.574219 575.359375 749.988281 575.359375 751.734375 C 575.359375 778.992188 553.183594 801.167969 525.929688 801.167969 C 498.675781 801.167969 476.5 778.992188 476.5 751.734375 C 476.5 749.988281 475.085938 748.574219 473.335938 748.574219 C 446.082031 748.574219 423.90625 726.398438 423.90625 699.144531 Z M 473.335938 860.015625 C 475.085938 860.015625 476.5 858.605469 476.5 856.855469 C 476.5 829.597656 498.675781 807.425781 525.929688 807.425781 C 553.183594 807.425781 575.359375 829.597656 575.359375 856.855469 C 575.359375 858.605469 576.773438 860.015625 578.523438 860.015625 C 605.777344 860.015625 627.953125 882.191406 627.953125 909.449219 C 627.953125 936.703125 605.777344 958.878906 578.523438 958.878906 C 576.773438 958.878906 575.359375 960.289062 575.359375 962.039062 C 575.359375 989.296875 553.183594 1011.46875 525.929688 1011.46875 C 498.675781 1011.46875 476.5 989.296875 476.5 962.039062 C 476.5 960.289062 475.085938 958.878906 473.335938 958.878906 C 446.082031 958.878906 423.90625 936.703125 423.90625 909.449219 C 423.90625 882.191406 446.082031 860.015625 473.335938 860.015625 Z M 581.566406 853.792969 C 580.324219 830.878906 565.164062 811.613281 544.417969 804.277344 C 565.164062 796.960938 580.324219 777.695312 581.566406 754.78125 C 604.484375 753.535156 623.746094 738.378906 631.066406 717.632812 C 638.382812 738.378906 657.648438 753.535156 680.5625 754.78125 C 681.808594 777.695312 696.964844 796.960938 717.710938 804.277344 C 696.964844 811.597656 681.808594 830.878906 680.5625 853.792969 C 657.648438 855.039062 638.382812 870.195312 631.066406 890.941406 C 623.746094 870.195312 604.484375 855.039062 581.566406 853.792969 Z M 634.226562 699.125 C 634.226562 671.871094 656.402344 649.695312 683.65625 649.695312 C 685.40625 649.695312 686.820312 648.285156 686.820312 646.535156 C 686.820312 619.277344 708.996094 597.105469 736.25 597.105469 C 763.507812 597.105469 785.679688 619.277344 785.679688 646.535156 C 785.679688 648.285156 787.09375 649.695312 788.84375 649.695312 C 816.097656 649.695312 838.273438 671.871094 838.273438 699.125 C 838.273438 726.382812 816.097656 748.554688 788.84375 748.554688 C 787.09375 748.554688 785.679688 749.96875 785.679688 751.71875 C 785.679688 778.976562 763.507812 801.148438 736.25 801.148438 C 708.996094 801.148438 686.820312 778.976562 686.820312 751.71875 C 686.820312 749.96875 685.40625 748.554688 683.65625 748.554688 C 656.402344 748.554688 634.226562 726.382812 634.226562 699.125 Z M 683.65625 860 C 685.40625 860 686.820312 858.585938 686.820312 856.835938 C 686.820312 829.582031 708.996094 807.40625 736.25 807.40625 C 763.507812 807.40625 785.679688 829.582031 785.679688 856.835938 C 785.679688 858.585938 787.09375 860 788.84375 860 C 816.097656 860 838.273438 882.175781 838.273438 909.429688 C 838.273438 936.6875 816.097656 958.859375 788.84375 958.859375 C 787.09375 958.859375 785.679688 960.273438 785.679688 962.023438 C 785.679688 989.277344 763.507812 1011.453125 736.25 1011.453125 C 708.996094 1011.453125 686.820312 989.277344 686.820312 962.023438 C 686.820312 960.273438 685.40625 958.859375 683.65625 958.859375 C 656.402344 958.859375 634.226562 936.6875 634.226562 909.429688 C 634.226562 882.175781 656.402344 860 683.65625 860 Z M 791.886719 853.777344 C 790.644531 830.859375 775.484375 811.597656 754.742188 804.261719 C 775.484375 796.941406 790.644531 777.679688 791.886719 754.765625 C 814.804688 753.519531 834.066406 738.359375 841.386719 717.617188 C 848.703125 738.359375 867.984375 753.519531 890.882812 754.765625 C 892.128906 777.679688 907.285156 796.941406 928.03125 804.261719 C 907.285156 811.582031 892.128906 830.859375 890.882812 853.777344 C 867.96875 855.019531 848.703125 870.179688 841.386719 890.921875 C 834.066406 870.179688 814.804688 855.019531 791.886719 853.777344 Z M 844.546875 699.109375 C 844.546875 671.855469 866.722656 649.679688 893.980469 649.679688 C 895.726562 649.679688 897.140625 648.265625 897.140625 646.515625 C 897.140625 619.261719 919.316406 597.085938 946.570312 597.085938 C 973.828125 597.085938 996 619.261719 996 646.515625 C 996 648.265625 997.414062 649.679688 999.164062 649.679688 C 1026.417969 649.679688 1048.59375 671.855469 1048.59375 699.109375 C 1048.59375 726.363281 1026.417969 748.539062 999.164062 748.539062 C 997.414062 748.539062 996 749.953125 996 751.703125 C 996 778.957031 973.828125 801.132812 946.570312 801.132812 C 919.316406 801.132812 897.140625 778.957031 897.140625 751.703125 C 897.140625 749.953125 895.726562 748.539062 893.980469 748.539062 C 866.722656 748.539062 844.546875 726.363281 844.546875 699.109375 Z M 893.980469 859.984375 C 895.726562 859.984375 897.140625 858.570312 897.140625 856.820312 C 897.140625 829.566406 919.316406 807.390625 946.570312 807.390625 C 973.828125 807.390625 996 829.566406 996 856.820312 C 996 858.570312 997.414062 859.984375 999.164062 859.984375 C 1026.417969 859.984375 1048.59375 882.160156 1048.59375 909.414062 C 1048.59375 936.667969 1026.417969 958.84375 999.164062 958.84375 C 997.414062 958.84375 996 960.257812 996 962.007812 C 996 989.261719 973.828125 1011.4375 946.570312 1011.4375 C 919.316406 1011.4375 897.140625 989.261719 897.140625 962.007812 C 897.140625 960.257812 895.726562 958.84375 893.980469 958.84375 C 866.722656 958.84375 844.546875 936.667969 844.546875 909.414062 C 844.546875 882.160156 866.722656 859.984375 893.980469 859.984375 Z M 1002.210938 853.757812 C 1000.964844 830.84375 985.804688 811.582031 965.0625 804.246094 C 985.804688 796.925781 1000.964844 777.664062 1002.210938 754.746094 C 1025.125 753.503906 1044.386719 738.34375 1051.707031 717.597656 C 1059.023438 738.34375 1078.304688 753.503906 1101.203125 754.746094 C 1102.449219 777.664062 1117.609375 796.925781 1138.351562 804.246094 C 1117.609375 811.5625 1102.449219 830.84375 1101.203125 853.757812 C 1078.289062 855.003906 1059.023438 870.164062 1051.707031 890.90625 C 1044.386719 870.164062 1025.105469 855.003906 1002.210938 853.757812 Z M 1054.871094 699.09375 C 1054.871094 671.835938 1077.042969 649.664062 1104.300781 649.664062 C 1106.050781 649.664062 1107.460938 648.25 1107.460938 646.5 C 1107.460938 619.246094 1129.636719 597.070312 1156.890625 597.070312 C 1184.148438 597.070312 1206.320312 619.246094 1206.320312 646.5 C 1206.320312 648.25 1207.734375 649.664062 1209.484375 649.664062 C 1236.742188 649.664062 1258.914062 671.835938 1258.914062 699.09375 C 1258.914062 726.347656 1236.742188 748.523438 1209.484375 748.523438 C 1207.734375 748.523438 1206.320312 749.9375 1206.320312 751.6875 C 1206.320312 778.941406 1184.148438 801.117188 1156.890625 801.117188 C 1129.636719 801.117188 1107.460938 778.941406 1107.460938 751.6875 C 1107.460938 749.9375 1106.050781 748.523438 1104.300781 748.523438 C 1077.042969 748.523438 1054.871094 726.347656 1054.871094 699.09375 Z M 1104.300781 859.96875 C 1106.050781 859.96875 1107.460938 858.554688 1107.460938 856.804688 C 1107.460938 829.546875 1129.636719 807.375 1156.890625 807.375 C 1184.148438 807.375 1206.320312 829.546875 1206.320312 856.804688 C 1206.320312 858.554688 1207.734375 859.96875 1209.484375 859.96875 C 1236.742188 859.96875 1258.914062 882.140625 1258.914062 909.398438 C 1258.914062 936.652344 1236.742188 958.828125 1209.484375 958.828125 C 1207.734375 958.828125 1206.320312 960.238281 1206.320312 961.988281 C 1206.320312 989.246094 1184.148438 1011.417969 1156.890625 1011.417969 C 1129.636719 1011.417969 1107.460938 989.246094 1107.460938 961.988281 C 1107.460938 960.238281 1106.050781 958.828125 1104.300781 958.828125 C 1077.042969 958.828125 1054.871094 936.652344 1054.871094 909.398438 C 1054.871094 882.140625 1077.042969 859.96875 1104.300781 859.96875 Z M 1212.53125 853.742188 C 1211.285156 830.828125 1196.125 811.5625 1175.382812 804.226562 C 1196.125 796.910156 1211.285156 777.644531 1212.53125 754.730469 C 1235.445312 753.484375 1254.707031 738.328125 1262.027344 717.582031 C 1269.347656 738.328125 1288.625 753.484375 1311.523438 754.730469 C 1312.769531 777.644531 1327.929688 796.910156 1348.671875 804.226562 C 1327.929688 811.546875 1312.769531 830.828125 1311.523438 853.742188 C 1288.609375 854.988281 1269.347656 870.144531 1262.027344 890.890625 C 1254.707031 870.144531 1235.429688 854.988281 1212.53125 853.742188 Z M 1209.453125 538.203125 C 1207.703125 538.203125 1206.289062 539.613281 1206.289062 541.363281 C 1206.289062 568.621094 1184.113281 590.792969 1156.859375 590.792969 C 1129.601562 590.792969 1107.429688 568.621094 1107.429688 541.363281 C 1107.429688 539.613281 1106.015625 538.203125 1104.265625 538.203125 C 1077.011719 538.203125 1054.835938 516.027344 1054.835938 488.773438 C 1054.835938 461.515625 1077.011719 439.34375 1104.265625 439.34375 C 1106.015625 439.34375 1107.429688 437.929688 1107.429688 436.179688 C 1107.429688 408.921875 1129.601562 386.75 1156.859375 386.75 C 1184.113281 386.75 1206.289062 408.921875 1206.289062 436.179688 C 1206.289062 437.929688 1207.703125 439.34375 1209.453125 439.34375 C 1236.707031 439.34375 1258.882812 461.515625 1258.882812 488.773438 C 1258.882812 516.027344 1236.707031 538.203125 1209.453125 538.203125 Z M 999.148438 538.203125 C 997.398438 538.203125 995.984375 539.613281 995.984375 541.363281 C 995.984375 568.621094 973.808594 590.792969 946.554688 590.792969 C 919.300781 590.792969 897.125 568.621094 897.125 541.363281 C 897.125 539.613281 895.710938 538.203125 893.960938 538.203125 C 866.707031 538.203125 844.53125 516.027344 844.53125 488.773438 C 844.53125 461.515625 866.707031 439.34375 893.960938 439.34375 C 895.710938 439.34375 897.125 437.929688 897.125 436.179688 C 897.125 408.921875 919.300781 386.75 946.554688 386.75 C 973.808594 386.75 995.984375 408.921875 995.984375 436.179688 C 995.984375 437.929688 997.398438 439.34375 999.148438 439.34375 C 1026.402344 439.34375 1048.578125 461.515625 1048.578125 488.773438 C 1048.578125 516.027344 1026.402344 538.203125 999.148438 538.203125 Z M 788.84375 538.203125 C 787.09375 538.203125 785.679688 539.613281 785.679688 541.363281 C 785.679688 568.621094 763.507812 590.792969 736.25 590.792969 C 708.996094 590.792969 686.820312 568.621094 686.820312 541.363281 C 686.820312 539.613281 685.40625 538.203125 683.65625 538.203125 C 656.402344 538.203125 634.226562 516.027344 634.226562 488.773438 C 634.226562 461.515625 656.402344 439.34375 683.65625 439.34375 C 685.40625 439.34375 686.820312 437.929688 686.820312 436.179688 C 686.820312 408.921875 708.996094 386.75 736.25 386.75 C 763.507812 386.75 785.679688 408.921875 785.679688 436.179688 C 785.679688 437.929688 787.09375 439.34375 788.84375 439.34375 C 816.097656 439.34375 838.273438 461.515625 838.273438 488.773438 C 838.273438 516.027344 816.097656 538.203125 788.84375 538.203125 Z M 578.539062 538.203125 C 576.789062 538.203125 575.375 539.613281 575.375 541.363281 C 575.375 568.621094 553.203125 590.792969 525.945312 590.792969 C 498.691406 590.792969 476.515625 568.621094 476.515625 541.363281 C 476.515625 539.613281 475.101562 538.203125 473.355469 538.203125 C 446.097656 538.203125 423.921875 516.027344 423.921875 488.773438 C 423.921875 461.515625 446.097656 439.34375 473.355469 439.34375 C 475.101562 439.34375 476.515625 437.929688 476.515625 436.179688 C 476.515625 408.921875 498.691406 386.75 525.945312 386.75 C 553.203125 386.75 575.375 408.921875 575.375 436.179688 C 575.375 437.929688 576.789062 439.34375 578.539062 439.34375 C 605.792969 439.34375 627.96875 461.515625 627.96875 488.773438 C 627.96875 516.027344 605.792969 538.203125 578.539062 538.203125 Z M 368.234375 538.203125 C 366.484375 538.203125 365.074219 539.613281 365.074219 541.363281 C 365.074219 568.621094 342.898438 590.792969 315.640625 590.792969 C 288.386719 590.792969 266.210938 568.621094 266.210938 541.363281 C 266.210938 539.613281 264.800781 538.203125 263.050781 538.203125 C 235.792969 538.203125 213.621094 516.027344 213.621094 488.773438 C 213.621094 461.515625 235.792969 439.34375 263.050781 439.34375 C 264.800781 439.34375 266.210938 437.929688 266.210938 436.179688 C 266.210938 408.921875 288.386719 386.75 315.640625 386.75 C 342.898438 386.75 365.074219 408.921875 365.074219 436.179688 C 365.074219 437.929688 366.484375 439.34375 368.234375 439.34375 C 395.492188 439.34375 417.664062 461.515625 417.664062 488.773438 C 417.664062 516.027344 395.492188 538.203125 368.234375 538.203125 Z M 365.074219 646.515625 C 365.074219 648.265625 366.484375 649.679688 368.234375 649.679688 C 395.492188 649.679688 417.664062 671.855469 417.664062 699.109375 C 417.664062 726.363281 395.492188 748.539062 368.234375 748.539062 C 366.484375 748.539062 365.074219 749.953125 365.074219 751.703125 C 365.074219 778.957031 342.898438 801.132812 315.640625 801.132812 C 288.386719 801.132812 266.210938 778.957031 266.210938 751.703125 C 266.210938 749.953125 264.800781 748.539062 263.050781 748.539062 C 235.792969 748.539062 213.621094 726.363281 213.621094 699.109375 C 213.621094 671.855469 235.792969 649.679688 263.050781 649.679688 C 264.800781 649.679688 266.210938 648.265625 266.210938 646.515625 C 266.210938 619.261719 288.386719 597.085938 315.640625 597.085938 C 342.898438 597.085938 365.074219 619.261719 365.074219 646.515625 Z M 365.074219 856.820312 C 365.074219 858.570312 366.484375 859.984375 368.234375 859.984375 C 395.492188 859.984375 417.664062 882.160156 417.664062 909.414062 C 417.664062 936.667969 395.492188 958.84375 368.234375 958.84375 C 366.484375 958.84375 365.074219 960.257812 365.074219 962.007812 C 365.074219 989.261719 342.898438 1011.4375 315.640625 1011.4375 C 288.386719 1011.4375 266.210938 989.261719 266.210938 962.007812 C 266.210938 960.257812 264.800781 958.84375 263.050781 958.84375 C 235.792969 958.84375 213.621094 936.667969 213.621094 909.414062 C 213.621094 882.160156 235.792969 859.984375 263.050781 859.984375 C 264.800781 859.984375 266.210938 858.570312 266.210938 856.820312 C 266.210938 829.566406 288.386719 807.390625 315.640625 807.390625 C 342.898438 807.390625 365.074219 829.566406 365.074219 856.820312 Z M 365.074219 1067.125 C 365.074219 1068.875 366.484375 1070.289062 368.234375 1070.289062 C 395.492188 1070.289062 417.664062 1092.460938 417.664062 1119.71875 C 417.664062 1146.972656 395.492188 1169.148438 368.234375 1169.148438 C 366.484375 1169.148438 365.074219 1170.5625 365.074219 1172.308594 C 365.074219 1199.566406 342.898438 1221.742188 315.640625 1221.742188 C 288.386719 1221.742188 266.210938 1199.566406 266.210938 1172.308594 C 266.210938 1170.5625 264.800781 1169.148438 263.050781 1169.148438 C 235.792969 1169.148438 213.621094 1146.972656 213.621094 1119.71875 C 213.621094 1092.460938 235.792969 1070.289062 263.050781 1070.289062 C 264.800781 1070.289062 266.210938 1068.875 266.210938 1067.125 C 266.210938 1039.871094 288.386719 1017.695312 315.640625 1017.695312 C 342.898438 1017.695312 365.074219 1039.871094 365.074219 1067.125 Z M 371.296875 1064.0625 C 370.050781 1041.148438 354.894531 1021.867188 334.148438 1014.550781 C 354.894531 1007.230469 370.050781 987.949219 371.296875 965.035156 C 394.210938 963.789062 413.476562 948.632812 420.792969 927.886719 C 428.113281 948.632812 447.375 963.789062 470.292969 965.035156 C 471.535156 987.949219 486.695312 1007.230469 507.441406 1014.550781 C 486.695312 1021.867188 471.535156 1041.148438 470.292969 1064.0625 C 447.378906 1065.308594 428.113281 1080.464844 420.792969 1101.210938 C 413.476562 1080.464844 394.210938 1065.308594 371.296875 1064.0625 Z M 473.371094 1070.289062 C 475.121094 1070.289062 476.535156 1068.875 476.535156 1067.125 C 476.535156 1039.871094 498.707031 1017.695312 525.964844 1017.695312 C 553.21875 1017.695312 575.394531 1039.871094 575.394531 1067.125 C 575.394531 1068.875 576.804688 1070.289062 578.554688 1070.289062 C 605.8125 1070.289062 627.984375 1092.460938 627.984375 1119.71875 C 627.984375 1146.972656 605.8125 1169.148438 578.554688 1169.148438 C 576.804688 1169.148438 575.394531 1170.5625 575.394531 1172.308594 C 575.394531 1199.566406 553.21875 1221.742188 525.964844 1221.742188 C 498.707031 1221.742188 476.535156 1199.566406 476.535156 1172.308594 C 476.535156 1170.5625 475.121094 1169.148438 473.371094 1169.148438 C 446.113281 1169.148438 423.941406 1146.972656 423.941406 1119.71875 C 423.941406 1092.460938 446.113281 1070.289062 473.371094 1070.289062 Z M 581.601562 1064.0625 C 580.355469 1041.148438 565.199219 1021.867188 544.453125 1014.550781 C 565.199219 1007.230469 580.355469 987.949219 581.601562 965.035156 C 604.515625 963.789062 623.78125 948.632812 631.097656 927.886719 C 638.417969 948.632812 657.679688 963.789062 680.597656 965.035156 C 681.839844 987.949219 697 1007.230469 717.742188 1014.550781 C 697 1021.867188 681.839844 1041.148438 680.597656 1064.0625 C 657.679688 1065.308594 638.417969 1080.464844 631.097656 1101.210938 C 623.78125 1080.464844 604.515625 1065.308594 581.601562 1064.0625 Z M 683.675781 1070.289062 C 685.425781 1070.289062 686.835938 1068.875 686.835938 1067.125 C 686.835938 1039.871094 709.011719 1017.695312 736.265625 1017.695312 C 763.523438 1017.695312 785.695312 1039.871094 785.695312 1067.125 C 785.695312 1068.875 787.109375 1070.289062 788.859375 1070.289062 C 816.117188 1070.289062 838.289062 1092.460938 838.289062 1119.71875 C 838.289062 1146.972656 816.117188 1169.148438 788.859375 1169.148438 C 787.109375 1169.148438 785.695312 1170.5625 785.695312 1172.308594 C 785.695312 1199.566406 763.523438 1221.742188 736.265625 1221.742188 C 709.011719 1221.742188 686.835938 1199.566406 686.835938 1172.308594 C 686.835938 1170.5625 685.425781 1169.148438 683.675781 1169.148438 C 656.417969 1169.148438 634.246094 1146.972656 634.246094 1119.71875 C 634.246094 1092.460938 656.417969 1070.289062 683.675781 1070.289062 Z M 791.90625 1064.0625 C 790.660156 1041.148438 775.5 1021.867188 754.757812 1014.550781 C 775.5 1007.230469 790.660156 987.949219 791.90625 965.035156 C 814.820312 963.789062 834.085938 948.632812 841.402344 927.886719 C 848.722656 948.632812 868 963.789062 890.898438 965.035156 C 892.144531 987.949219 907.304688 1007.230469 928.046875 1014.550781 C 907.304688 1021.867188 892.144531 1041.148438 890.898438 1064.0625 C 867.984375 1065.308594 848.722656 1080.464844 841.402344 1101.210938 C 834.085938 1080.464844 814.820312 1065.308594 791.90625 1064.0625 Z M 893.980469 1070.289062 C 895.726562 1070.289062 897.140625 1068.875 897.140625 1067.125 C 897.140625 1039.871094 919.316406 1017.695312 946.570312 1017.695312 C 973.828125 1017.695312 996 1039.871094 996 1067.125 C 996 1068.875 997.414062 1070.289062 999.164062 1070.289062 C 1026.417969 1070.289062 1048.59375 1092.460938 1048.59375 1119.71875 C 1048.59375 1146.972656 1026.417969 1169.148438 999.164062 1169.148438 C 997.414062 1169.148438 996 1170.5625 996 1172.308594 C 996 1199.566406 973.828125 1221.742188 946.570312 1221.742188 C 919.316406 1221.742188 897.140625 1199.566406 897.140625 1172.308594 C 897.140625 1170.5625 895.726562 1169.148438 893.980469 1169.148438 C 866.722656 1169.148438 844.546875 1146.972656 844.546875 1119.71875 C 844.546875 1092.460938 866.722656 1070.289062 893.980469 1070.289062 Z M 1002.210938 1064.0625 C 1000.964844 1041.148438 985.804688 1021.867188 965.0625 1014.550781 C 985.804688 1007.230469 1000.964844 987.949219 1002.210938 965.035156 C 1025.125 963.789062 1044.386719 948.632812 1051.707031 927.886719 C 1059.023438 948.632812 1078.304688 963.789062 1101.203125 965.035156 C 1102.449219 987.949219 1117.609375 1007.230469 1138.351562 1014.550781 C 1117.609375 1021.867188 1102.449219 1041.148438 1101.203125 1064.0625 C 1078.289062 1065.308594 1059.023438 1080.464844 1051.707031 1101.210938 C 1044.386719 1080.464844 1025.105469 1065.308594 1002.210938 1064.0625 Z M 1104.28125 1070.289062 C 1106.03125 1070.289062 1107.445312 1068.875 1107.445312 1067.125 C 1107.445312 1039.871094 1129.621094 1017.695312 1156.875 1017.695312 C 1184.132812 1017.695312 1206.304688 1039.871094 1206.304688 1067.125 C 1206.304688 1068.875 1207.71875 1070.289062 1209.46875 1070.289062 C 1236.722656 1070.289062 1258.898438 1092.460938 1258.898438 1119.71875 C 1258.898438 1146.972656 1236.722656 1169.148438 1209.46875 1169.148438 C 1207.71875 1169.148438 1206.304688 1170.5625 1206.304688 1172.308594 C 1206.304688 1199.566406 1184.132812 1221.742188 1156.875 1221.742188 C 1129.621094 1221.742188 1107.445312 1199.566406 1107.445312 1172.308594 C 1107.445312 1170.5625 1106.03125 1169.148438 1104.28125 1169.148438 C 1077.027344 1169.148438 1054.851562 1146.972656 1054.851562 1119.71875 C 1054.851562 1092.460938 1077.027344 1070.289062 1104.28125 1070.289062 Z M 1212.511719 1064.0625 C 1211.269531 1041.148438 1196.109375 1021.867188 1175.367188 1014.550781 C 1196.109375 1007.230469 1211.269531 987.949219 1212.511719 965.035156 C 1235.429688 963.789062 1254.691406 948.632812 1262.011719 927.886719 C 1269.328125 948.632812 1288.609375 963.789062 1311.507812 965.035156 C 1312.753906 987.949219 1327.910156 1007.230469 1348.65625 1014.550781 C 1327.910156 1021.867188 1312.753906 1041.148438 1311.507812 1064.0625 C 1288.59375 1065.308594 1269.328125 1080.464844 1262.011719 1101.210938 C 1254.691406 1080.464844 1235.410156 1065.308594 1212.511719 1064.0625 Z M 1314.585938 1070.289062 C 1316.335938 1070.289062 1317.75 1068.875 1317.75 1067.125 C 1317.75 1039.871094 1339.925781 1017.695312 1367.179688 1017.695312 C 1394.433594 1017.695312 1416.609375 1039.871094 1416.609375 1067.125 C 1416.609375 1068.875 1418.023438 1070.289062 1419.773438 1070.289062 C 1447.027344 1070.289062 1469.203125 1092.460938 1469.203125 1119.71875 C 1469.203125 1146.972656 1447.027344 1169.148438 1419.773438 1169.148438 C 1418.023438 1169.148438 1416.609375 1170.5625 1416.609375 1172.308594 C 1416.609375 1199.566406 1394.433594 1221.742188 1367.179688 1221.742188 C 1339.925781 1221.742188 1317.75 1199.566406 1317.75 1172.308594 C 1317.75 1170.5625 1316.335938 1169.148438 1314.585938 1169.148438 C 1287.332031 1169.148438 1265.15625 1146.972656 1265.15625 1119.71875 C 1265.15625 1092.460938 1287.332031 1070.289062 1314.585938 1070.289062 Z M 1317.75 961.972656 C 1317.75 960.222656 1316.335938 958.808594 1314.585938 958.808594 C 1287.332031 958.808594 1265.15625 936.636719 1265.15625 909.378906 C 1265.15625 882.125 1287.332031 859.949219 1314.585938 859.949219 C 1316.335938 859.949219 1317.75 858.535156 1317.75 856.789062 C 1317.75 829.53125 1339.925781 807.355469 1367.179688 807.355469 C 1394.433594 807.355469 1416.609375 829.53125 1416.609375 856.789062 C 1416.609375 858.535156 1418.023438 859.949219 1419.773438 859.949219 C 1447.027344 859.949219 1469.203125 882.125 1469.203125 909.378906 C 1469.203125 936.636719 1447.027344 958.808594 1419.773438 958.808594 C 1418.023438 958.808594 1416.609375 960.222656 1416.609375 961.972656 C 1416.609375 989.226562 1394.433594 1011.402344 1367.179688 1011.402344 C 1339.925781 1011.402344 1317.75 989.226562 1317.75 961.972656 Z M 1317.75 751.667969 C 1317.75 749.917969 1316.335938 748.503906 1314.585938 748.503906 C 1287.332031 748.503906 1265.15625 726.332031 1265.15625 699.074219 C 1265.15625 671.820312 1287.332031 649.644531 1314.585938 649.644531 C 1316.335938 649.644531 1317.75 648.234375 1317.75 646.484375 C 1317.75 619.226562 1339.925781 597.054688 1367.179688 597.054688 C 1394.433594 597.054688 1416.609375 619.226562 1416.609375 646.484375 C 1416.609375 648.234375 1418.023438 649.644531 1419.773438 649.644531 C 1447.027344 649.644531 1469.203125 671.820312 1469.203125 699.074219 C 1469.203125 726.332031 1447.027344 748.503906 1419.773438 748.503906 C 1418.023438 748.503906 1416.609375 749.917969 1416.609375 751.667969 C 1416.609375 778.925781 1394.433594 801.097656 1367.179688 801.097656 C 1339.925781 801.097656 1317.75 778.925781 1317.75 751.667969 Z M 1317.75 541.363281 C 1317.75 539.613281 1316.335938 538.203125 1314.585938 538.203125 C 1287.332031 538.203125 1265.15625 516.027344 1265.15625 488.773438 C 1265.15625 461.515625 1287.332031 439.34375 1314.585938 439.34375 C 1316.335938 439.34375 1317.75 437.929688 1317.75 436.179688 C 1317.75 408.921875 1339.925781 386.75 1367.179688 386.75 C 1394.433594 386.75 1416.609375 408.921875 1416.609375 436.179688 C 1416.609375 437.929688 1418.023438 439.34375 1419.773438 439.34375 C 1447.027344 439.34375 1469.203125 461.515625 1469.203125 488.773438 C 1469.203125 516.027344 1447.027344 538.203125 1419.773438 538.203125 C 1418.023438 538.203125 1416.609375 539.613281 1416.609375 541.363281 C 1416.609375 568.621094 1394.433594 590.792969 1367.179688 590.792969 C 1339.925781 590.792969 1317.75 568.621094 1317.75 541.363281 Z M 1317.75 331.0625 C 1317.75 329.3125 1316.335938 327.898438 1314.585938 327.898438 C 1287.332031 327.898438 1265.15625 305.722656 1265.15625 278.46875 C 1265.15625 251.210938 1287.332031 229.039062 1314.585938 229.039062 C 1316.335938 229.039062 1317.75 227.625 1317.75 225.875 C 1317.75 198.621094 1339.925781 176.445312 1367.179688 176.445312 C 1394.433594 176.445312 1416.609375 198.621094 1416.609375 225.875 C 1416.609375 227.625 1418.023438 229.039062 1419.773438 229.039062 C 1447.027344 229.039062 1469.203125 251.210938 1469.203125 278.46875 C 1469.203125 305.722656 1447.027344 327.898438 1419.773438 327.898438 C 1418.023438 327.898438 1416.609375 329.3125 1416.609375 331.0625 C 1416.609375 358.316406 1394.433594 380.492188 1367.179688 380.492188 C 1339.925781 380.492188 1317.75 358.316406 1317.75 331.0625 Z M 1209.433594 327.898438 C 1207.683594 327.898438 1206.273438 329.3125 1206.273438 331.0625 C 1206.273438 358.316406 1184.097656 380.492188 1156.839844 380.492188 C 1129.585938 380.492188 1107.410156 358.316406 1107.410156 331.0625 C 1107.410156 329.3125 1106 327.898438 1104.25 327.898438 C 1076.992188 327.898438 1054.820312 305.722656 1054.820312 278.46875 C 1054.820312 251.210938 1076.992188 229.039062 1104.25 229.039062 C 1106 229.039062 1107.410156 227.625 1107.410156 225.875 C 1107.410156 198.621094 1129.585938 176.445312 1156.839844 176.445312 C 1184.097656 176.445312 1206.273438 198.621094 1206.273438 225.875 C 1206.273438 227.625 1207.683594 229.039062 1209.433594 229.039062 C 1236.691406 229.039062 1258.863281 251.210938 1258.863281 278.46875 C 1258.863281 305.722656 1236.691406 327.898438 1209.433594 327.898438 Z M 999.128906 327.898438 C 997.382812 327.898438 995.96875 329.3125 995.96875 331.0625 C 995.96875 358.316406 973.792969 380.492188 946.539062 380.492188 C 919.28125 380.492188 897.109375 358.316406 897.109375 331.0625 C 897.109375 329.3125 895.695312 327.898438 893.945312 327.898438 C 866.691406 327.898438 844.515625 305.722656 844.515625 278.46875 C 844.515625 251.210938 866.691406 229.039062 893.945312 229.039062 C 895.695312 229.039062 897.109375 227.625 897.109375 225.875 C 897.109375 198.621094 919.28125 176.445312 946.539062 176.445312 C 973.792969 176.445312 995.96875 198.621094 995.96875 225.875 C 995.96875 227.625 997.382812 229.039062 999.128906 229.039062 C 1026.386719 229.039062 1048.558594 251.210938 1048.558594 278.46875 C 1048.558594 305.722656 1026.386719 327.898438 999.128906 327.898438 Z M 788.828125 327.898438 C 787.078125 327.898438 785.664062 329.3125 785.664062 331.0625 C 785.664062 358.316406 763.488281 380.492188 736.234375 380.492188 C 708.976562 380.492188 686.804688 358.316406 686.804688 331.0625 C 686.804688 329.3125 685.390625 327.898438 683.640625 327.898438 C 656.386719 327.898438 634.210938 305.722656 634.210938 278.46875 C 634.210938 251.210938 656.386719 229.039062 683.640625 229.039062 C 685.390625 229.039062 686.804688 227.625 686.804688 225.875 C 686.804688 198.621094 708.976562 176.445312 736.234375 176.445312 C 763.488281 176.445312 785.664062 198.621094 785.664062 225.875 C 785.664062 227.625 787.078125 229.039062 788.828125 229.039062 C 816.082031 229.039062 838.257812 251.210938 838.257812 278.46875 C 838.257812 305.722656 816.082031 327.898438 788.828125 327.898438 Z M 578.523438 327.898438 C 576.773438 327.898438 575.359375 329.3125 575.359375 331.0625 C 575.359375 358.316406 553.183594 380.492188 525.929688 380.492188 C 498.675781 380.492188 476.5 358.316406 476.5 331.0625 C 476.5 329.3125 475.085938 327.898438 473.335938 327.898438 C 446.082031 327.898438 423.90625 305.722656 423.90625 278.46875 C 423.90625 251.210938 446.082031 229.039062 473.335938 229.039062 C 475.085938 229.039062 476.5 227.625 476.5 225.875 C 476.5 198.621094 498.675781 176.445312 525.929688 176.445312 C 553.183594 176.445312 575.359375 198.621094 575.359375 225.875 C 575.359375 227.625 576.773438 229.039062 578.523438 229.039062 C 605.777344 229.039062 627.953125 251.210938 627.953125 278.46875 C 627.953125 305.722656 605.777344 327.898438 578.523438 327.898438 Z M 368.21875 327.898438 C 366.46875 327.898438 365.054688 329.3125 365.054688 331.0625 C 365.054688 358.316406 342.882812 380.492188 315.625 380.492188 C 288.371094 380.492188 266.195312 358.316406 266.195312 331.0625 C 266.195312 329.3125 264.78125 327.898438 263.03125 327.898438 C 235.777344 327.898438 213.601562 305.722656 213.601562 278.46875 C 213.601562 251.210938 235.777344 229.039062 263.03125 229.039062 C 264.78125 229.039062 266.195312 227.625 266.195312 225.875 C 266.195312 198.621094 288.371094 176.445312 315.625 176.445312 C 342.882812 176.445312 365.054688 198.621094 365.054688 225.875 C 365.054688 227.625 366.46875 229.039062 368.21875 229.039062 C 395.472656 229.039062 417.648438 251.210938 417.648438 278.46875 C 417.648438 305.722656 395.472656 327.898438 368.21875 327.898438 Z M 259.988281 544.425781 C 261.234375 567.339844 276.390625 586.605469 297.136719 593.925781 C 276.390625 601.242188 261.234375 620.507812 259.988281 643.421875 C 237.074219 644.667969 217.808594 659.824219 210.492188 680.570312 C 203.171875 659.824219 183.90625 644.667969 160.992188 643.421875 C 159.75 620.507812 144.589844 601.242188 123.84375 593.925781 C 144.589844 586.605469 159.75 567.339844 160.992188 544.425781 C 183.90625 543.183594 203.171875 528.023438 210.492188 507.277344 C 217.808594 528.023438 237.074219 543.183594 259.988281 544.425781 Z M 259.988281 754.730469 C 261.234375 777.644531 276.390625 796.910156 297.136719 804.226562 C 276.390625 811.546875 261.234375 830.828125 259.988281 853.742188 C 237.074219 854.988281 217.808594 870.144531 210.492188 890.890625 C 203.171875 870.144531 183.90625 854.988281 160.992188 853.742188 C 159.75 830.828125 144.589844 811.5625 123.84375 804.226562 C 144.589844 796.910156 159.75 777.644531 160.992188 754.730469 C 183.90625 753.484375 203.171875 738.328125 210.492188 717.582031 C 217.808594 738.328125 237.074219 753.484375 259.988281 754.730469 Z M 259.988281 965.035156 C 261.234375 987.949219 276.390625 1007.230469 297.136719 1014.550781 C 276.390625 1021.867188 261.234375 1041.148438 259.988281 1064.0625 C 237.074219 1065.308594 217.808594 1080.464844 210.492188 1101.210938 C 203.171875 1080.464844 183.90625 1065.308594 160.992188 1064.0625 C 159.75 1041.148438 144.589844 1021.867188 123.84375 1014.550781 C 144.589844 1007.230469 159.75 987.949219 160.992188 965.035156 C 183.90625 963.789062 203.171875 948.632812 210.492188 927.886719 C 217.808594 948.632812 237.074219 963.789062 259.988281 965.035156 Z M 259.988281 1175.339844 C 261.234375 1198.253906 276.390625 1217.535156 297.136719 1224.851562 C 276.390625 1232.171875 261.234375 1251.453125 259.988281 1274.367188 C 237.074219 1275.613281 217.808594 1290.769531 210.492188 1311.515625 C 203.171875 1290.769531 183.90625 1275.613281 160.992188 1274.367188 C 159.75 1251.453125 144.589844 1232.171875 123.84375 1224.851562 C 144.589844 1217.535156 159.75 1198.253906 160.992188 1175.339844 C 183.90625 1174.09375 203.171875 1158.933594 210.492188 1138.191406 C 217.808594 1158.933594 237.074219 1174.09375 259.988281 1175.339844 Z M 263.066406 1280.574219 C 264.816406 1280.574219 266.230469 1279.160156 266.230469 1277.410156 C 266.230469 1250.15625 288.402344 1227.980469 315.660156 1227.980469 C 342.914062 1227.980469 365.089844 1250.15625 365.089844 1277.410156 C 365.089844 1279.160156 366.503906 1280.574219 368.253906 1280.574219 C 395.507812 1280.574219 417.683594 1302.75 417.683594 1330.003906 C 417.683594 1357.261719 395.507812 1379.433594 368.253906 1379.433594 C 366.503906 1379.433594 365.089844 1380.847656 365.089844 1382.597656 C 365.089844 1409.851562 342.914062 1432.027344 315.660156 1432.027344 C 288.402344 1432.027344 266.230469 1409.851562 266.230469 1382.597656 C 266.230469 1380.847656 264.816406 1379.433594 263.066406 1379.433594 C 235.8125 1379.433594 213.636719 1357.261719 213.636719 1330.003906 C 213.636719 1302.75 235.8125 1280.574219 263.066406 1280.574219 Z M 371.296875 1274.351562 C 370.050781 1251.433594 354.894531 1232.15625 334.148438 1224.835938 C 354.894531 1217.515625 370.050781 1198.238281 371.296875 1175.320312 C 394.210938 1174.078125 413.476562 1158.917969 420.792969 1138.175781 C 428.113281 1158.917969 447.375 1174.078125 470.292969 1175.320312 C 471.535156 1198.238281 486.695312 1217.515625 507.441406 1224.835938 C 486.695312 1232.15625 471.535156 1251.433594 470.292969 1274.351562 C 447.378906 1275.59375 428.113281 1290.753906 420.792969 1311.5 C 413.476562 1290.753906 394.210938 1275.59375 371.296875 1274.351562 Z M 473.371094 1280.574219 C 475.121094 1280.574219 476.535156 1279.160156 476.535156 1277.410156 C 476.535156 1250.15625 498.707031 1227.980469 525.964844 1227.980469 C 553.21875 1227.980469 575.394531 1250.15625 575.394531 1277.410156 C 575.394531 1279.160156 576.804688 1280.574219 578.554688 1280.574219 C 605.8125 1280.574219 627.984375 1302.75 627.984375 1330.003906 C 627.984375 1357.261719 605.8125 1379.433594 578.554688 1379.433594 C 576.804688 1379.433594 575.394531 1380.847656 575.394531 1382.597656 C 575.394531 1409.851562 553.21875 1432.027344 525.964844 1432.027344 C 498.707031 1432.027344 476.535156 1409.851562 476.535156 1382.597656 C 476.535156 1380.847656 475.121094 1379.433594 473.371094 1379.433594 C 446.113281 1379.433594 423.941406 1357.261719 423.941406 1330.003906 C 423.941406 1302.75 446.113281 1280.574219 473.371094 1280.574219 Z M 581.601562 1274.351562 C 580.355469 1251.433594 565.199219 1232.15625 544.453125 1224.835938 C 565.199219 1217.515625 580.355469 1198.238281 581.601562 1175.320312 C 604.515625 1174.078125 623.78125 1158.917969 631.097656 1138.175781 C 638.417969 1158.917969 657.679688 1174.078125 680.597656 1175.320312 C 681.839844 1198.238281 697 1217.515625 717.742188 1224.835938 C 697 1232.15625 681.839844 1251.433594 680.597656 1274.351562 C 657.679688 1275.59375 638.417969 1290.753906 631.097656 1311.5 C 623.78125 1290.753906 604.515625 1275.59375 581.601562 1274.351562 Z M 683.675781 1280.574219 C 685.425781 1280.574219 686.835938 1279.160156 686.835938 1277.410156 C 686.835938 1250.15625 709.011719 1227.980469 736.265625 1227.980469 C 763.523438 1227.980469 785.695312 1250.15625 785.695312 1277.410156 C 785.695312 1279.160156 787.109375 1280.574219 788.859375 1280.574219 C 816.117188 1280.574219 838.289062 1302.75 838.289062 1330.003906 C 838.289062 1357.261719 816.117188 1379.433594 788.859375 1379.433594 C 787.109375 1379.433594 785.695312 1380.847656 785.695312 1382.597656 C 785.695312 1409.851562 763.523438 1432.027344 736.265625 1432.027344 C 709.011719 1432.027344 686.835938 1409.851562 686.835938 1382.597656 C 686.835938 1380.847656 685.425781 1379.433594 683.675781 1379.433594 C 656.417969 1379.433594 634.246094 1357.261719 634.246094 1330.003906 C 634.246094 1302.75 656.417969 1280.574219 683.675781 1280.574219 Z M 791.90625 1274.351562 C 790.660156 1251.433594 775.5 1232.15625 754.757812 1224.835938 C 775.5 1217.515625 790.660156 1198.238281 791.90625 1175.320312 C 814.820312 1174.078125 834.085938 1158.917969 841.402344 1138.175781 C 848.722656 1158.917969 868 1174.078125 890.898438 1175.320312 C 892.144531 1198.238281 907.304688 1217.515625 928.046875 1224.835938 C 907.304688 1232.15625 892.144531 1251.433594 890.898438 1274.351562 C 867.984375 1275.59375 848.722656 1290.753906 841.402344 1311.5 C 834.085938 1290.753906 814.820312 1275.59375 791.90625 1274.351562 Z M 893.980469 1280.574219 C 895.726562 1280.574219 897.140625 1279.160156 897.140625 1277.410156 C 897.140625 1250.15625 919.316406 1227.980469 946.570312 1227.980469 C 973.828125 1227.980469 996 1250.15625 996 1277.410156 C 996 1279.160156 997.414062 1280.574219 999.164062 1280.574219 C 1026.417969 1280.574219 1048.59375 1302.75 1048.59375 1330.003906 C 1048.59375 1357.261719 1026.417969 1379.433594 999.164062 1379.433594 C 997.414062 1379.433594 996 1380.847656 996 1382.597656 C 996 1409.851562 973.828125 1432.027344 946.570312 1432.027344 C 919.316406 1432.027344 897.140625 1409.851562 897.140625 1382.597656 C 897.140625 1380.847656 895.726562 1379.433594 893.980469 1379.433594 C 866.722656 1379.433594 844.546875 1357.261719 844.546875 1330.003906 C 844.546875 1302.75 866.722656 1280.574219 893.980469 1280.574219 Z M 1002.210938 1274.351562 C 1000.964844 1251.433594 985.804688 1232.15625 965.0625 1224.835938 C 985.804688 1217.515625 1000.964844 1198.238281 1002.210938 1175.320312 C 1025.125 1174.078125 1044.386719 1158.917969 1051.707031 1138.175781 C 1059.023438 1158.917969 1078.304688 1174.078125 1101.203125 1175.320312 C 1102.449219 1198.238281 1117.609375 1217.515625 1138.351562 1224.835938 C 1117.609375 1232.15625 1102.449219 1251.433594 1101.203125 1274.351562 C 1078.289062 1275.59375 1059.023438 1290.753906 1051.707031 1311.5 C 1044.386719 1290.753906 1025.105469 1275.59375 1002.210938 1274.351562 Z M 1104.28125 1280.574219 C 1106.03125 1280.574219 1107.445312 1279.160156 1107.445312 1277.410156 C 1107.445312 1250.15625 1129.621094 1227.980469 1156.875 1227.980469 C 1184.132812 1227.980469 1206.304688 1250.15625 1206.304688 1277.410156 C 1206.304688 1279.160156 1207.71875 1280.574219 1209.46875 1280.574219 C 1236.722656 1280.574219 1258.898438 1302.75 1258.898438 1330.003906 C 1258.898438 1357.261719 1236.722656 1379.433594 1209.46875 1379.433594 C 1207.71875 1379.433594 1206.304688 1380.847656 1206.304688 1382.597656 C 1206.304688 1409.851562 1184.132812 1432.027344 1156.875 1432.027344 C 1129.621094 1432.027344 1107.445312 1409.851562 1107.445312 1382.597656 C 1107.445312 1380.847656 1106.03125 1379.433594 1104.28125 1379.433594 C 1077.027344 1379.433594 1054.851562 1357.261719 1054.851562 1330.003906 C 1054.851562 1302.75 1077.027344 1280.574219 1104.28125 1280.574219 Z M 1212.511719 1274.351562 C 1211.269531 1251.433594 1196.109375 1232.15625 1175.367188 1224.835938 C 1196.109375 1217.515625 1211.269531 1198.238281 1212.511719 1175.320312 C 1235.429688 1174.078125 1254.691406 1158.917969 1262.011719 1138.175781 C 1269.328125 1158.917969 1288.609375 1174.078125 1311.507812 1175.320312 C 1312.753906 1198.238281 1327.910156 1217.515625 1348.65625 1224.835938 C 1327.910156 1232.15625 1312.753906 1251.433594 1311.507812 1274.351562 C 1288.59375 1275.59375 1269.328125 1290.753906 1262.011719 1311.5 C 1254.691406 1290.753906 1235.410156 1275.59375 1212.511719 1274.351562 Z M 1314.585938 1280.574219 C 1316.335938 1280.574219 1317.75 1279.160156 1317.75 1277.410156 C 1317.75 1250.15625 1339.925781 1227.980469 1367.179688 1227.980469 C 1394.433594 1227.980469 1416.609375 1250.15625 1416.609375 1277.410156 C 1416.609375 1279.160156 1418.023438 1280.574219 1419.773438 1280.574219 C 1447.027344 1280.574219 1469.203125 1302.75 1469.203125 1330.003906 C 1469.203125 1357.261719 1447.027344 1379.433594 1419.773438 1379.433594 C 1418.023438 1379.433594 1416.609375 1380.847656 1416.609375 1382.597656 C 1416.609375 1409.851562 1394.433594 1432.027344 1367.179688 1432.027344 C 1339.925781 1432.027344 1317.75 1409.851562 1317.75 1382.597656 C 1317.75 1380.847656 1316.335938 1379.433594 1314.585938 1379.433594 C 1287.332031 1379.433594 1265.15625 1357.261719 1265.15625 1330.003906 C 1265.15625 1302.75 1287.332031 1280.574219 1314.585938 1280.574219 Z M 1422.816406 1274.351562 C 1421.574219 1251.433594 1406.414062 1232.15625 1385.667969 1224.835938 C 1406.414062 1217.515625 1421.574219 1198.238281 1422.816406 1175.320312 C 1445.730469 1174.078125 1464.996094 1158.917969 1472.316406 1138.175781 C 1479.632812 1158.917969 1498.914062 1174.078125 1521.8125 1175.320312 C 1523.058594 1198.238281 1538.214844 1217.515625 1558.960938 1224.835938 C 1538.214844 1232.15625 1523.058594 1251.433594 1521.8125 1274.351562 C 1498.898438 1275.59375 1479.632812 1290.753906 1472.316406 1311.5 C 1464.996094 1290.753906 1445.714844 1275.59375 1422.816406 1274.351562 Z M 1472.316406 1101.195312 C 1464.996094 1080.449219 1445.714844 1065.289062 1422.816406 1064.046875 C 1421.574219 1041.132812 1406.414062 1021.851562 1385.667969 1014.53125 C 1406.414062 1007.214844 1421.574219 987.933594 1422.816406 965.019531 C 1445.730469 963.773438 1464.996094 948.613281 1472.316406 927.871094 C 1479.632812 948.613281 1498.914062 963.773438 1521.8125 965.019531 C 1523.058594 987.933594 1538.214844 1007.214844 1558.960938 1014.53125 C 1538.214844 1021.851562 1523.058594 1041.132812 1521.8125 1064.046875 C 1498.898438 1065.289062 1479.632812 1080.449219 1472.316406 1101.195312 Z M 1472.316406 890.890625 C 1464.996094 870.144531 1445.714844 854.988281 1422.816406 853.742188 C 1421.574219 830.828125 1406.414062 811.5625 1385.667969 804.226562 C 1406.414062 796.910156 1421.574219 777.644531 1422.816406 754.730469 C 1445.730469 753.484375 1464.996094 738.328125 1472.316406 717.582031 C 1479.632812 738.328125 1498.914062 753.484375 1521.8125 754.730469 C 1523.058594 777.644531 1538.214844 796.910156 1558.960938 804.226562 C 1538.214844 811.546875 1523.058594 830.828125 1521.8125 853.742188 C 1498.898438 854.988281 1479.632812 870.144531 1472.316406 890.890625 Z M 1472.316406 680.585938 C 1464.996094 659.839844 1445.714844 644.683594 1422.816406 643.4375 C 1421.574219 620.523438 1406.414062 601.257812 1385.667969 593.941406 C 1406.414062 586.621094 1421.574219 567.359375 1422.816406 544.445312 C 1445.730469 543.199219 1464.996094 528.039062 1472.316406 507.296875 C 1479.632812 528.039062 1498.914062 543.199219 1521.8125 544.445312 C 1523.058594 567.359375 1538.214844 586.621094 1558.960938 593.941406 C 1538.214844 601.257812 1523.058594 620.523438 1521.8125 643.4375 C 1498.898438 644.683594 1479.632812 659.839844 1472.316406 680.585938 Z M 1472.316406 470.28125 C 1464.996094 449.539062 1445.714844 434.378906 1422.816406 433.132812 C 1421.574219 410.21875 1406.414062 390.957031 1385.667969 383.636719 C 1406.414062 376.316406 1421.574219 357.054688 1422.816406 334.140625 C 1445.730469 332.894531 1464.996094 317.734375 1472.316406 296.992188 C 1479.632812 317.734375 1498.914062 332.894531 1521.8125 334.140625 C 1523.058594 357.054688 1538.214844 376.316406 1558.960938 383.636719 C 1538.214844 390.957031 1523.058594 410.21875 1521.8125 433.132812 C 1498.898438 434.378906 1479.632812 449.539062 1472.316406 470.28125 Z M 1314.585938 18.75 C 1316.335938 18.75 1317.75 17.335938 1317.75 15.585938 C 1317.75 -11.667969 1339.925781 -33.84375 1367.179688 -33.84375 C 1394.433594 -33.84375 1416.609375 -11.667969 1416.609375 15.585938 C 1416.609375 17.335938 1418.023438 18.75 1419.773438 18.75 C 1447.027344 18.75 1469.203125 40.925781 1469.203125 68.179688 C 1469.203125 95.4375 1447.027344 117.609375 1419.773438 117.609375 C 1418.023438 117.609375 1416.609375 119.023438 1416.609375 120.773438 C 1416.609375 148.027344 1394.433594 170.203125 1367.179688 170.203125 C 1339.925781 170.203125 1317.75 148.027344 1317.75 120.773438 C 1317.75 119.023438 1316.335938 117.609375 1314.585938 117.609375 C 1287.332031 117.609375 1265.15625 95.4375 1265.15625 68.179688 C 1265.15625 40.925781 1287.332031 18.75 1314.585938 18.75 Z M 1311.507812 123.820312 C 1312.753906 146.734375 1327.910156 165.996094 1348.65625 173.316406 C 1327.910156 180.632812 1312.753906 199.898438 1311.507812 222.8125 C 1288.59375 224.058594 1269.328125 239.214844 1262.011719 259.960938 C 1254.691406 239.214844 1235.410156 224.058594 1212.511719 222.8125 C 1211.269531 199.898438 1196.109375 180.632812 1175.367188 173.316406 C 1196.109375 165.996094 1211.269531 146.734375 1212.511719 123.820312 C 1235.429688 122.574219 1254.691406 107.414062 1262.011719 86.671875 C 1269.328125 107.414062 1288.609375 122.574219 1311.507812 123.820312 Z M 1104.28125 18.75 C 1106.03125 18.75 1107.445312 17.335938 1107.445312 15.585938 C 1107.445312 -11.667969 1129.621094 -33.84375 1156.875 -33.84375 C 1184.132812 -33.84375 1206.304688 -11.667969 1206.304688 15.585938 C 1206.304688 17.335938 1207.71875 18.75 1209.46875 18.75 C 1236.722656 18.75 1258.898438 40.925781 1258.898438 68.179688 C 1258.898438 95.4375 1236.722656 117.609375 1209.46875 117.609375 C 1207.71875 117.609375 1206.304688 119.023438 1206.304688 120.773438 C 1206.304688 148.027344 1184.132812 170.203125 1156.875 170.203125 C 1129.621094 170.203125 1107.445312 148.027344 1107.445312 120.773438 C 1107.445312 119.023438 1106.03125 117.609375 1104.28125 117.609375 C 1077.027344 117.609375 1054.851562 95.4375 1054.851562 68.179688 C 1054.851562 40.925781 1077.027344 18.75 1104.28125 18.75 Z M 1101.203125 123.820312 C 1102.449219 146.734375 1117.609375 165.996094 1138.351562 173.316406 C 1117.609375 180.632812 1102.449219 199.898438 1101.203125 222.8125 C 1078.289062 224.058594 1059.023438 239.214844 1051.707031 259.960938 C 1044.386719 239.214844 1025.105469 224.058594 1002.210938 222.8125 C 1000.964844 199.898438 985.804688 180.632812 965.0625 173.316406 C 985.804688 165.996094 1000.964844 146.734375 1002.210938 123.820312 C 1025.125 122.574219 1044.386719 107.414062 1051.707031 86.671875 C 1059.023438 107.414062 1078.304688 122.574219 1101.203125 123.820312 Z M 893.980469 18.75 C 895.726562 18.75 897.140625 17.335938 897.140625 15.585938 C 897.140625 -11.667969 919.316406 -33.84375 946.570312 -33.84375 C 973.828125 -33.84375 996 -11.667969 996 15.585938 C 996 17.335938 997.414062 18.75 999.164062 18.75 C 1026.417969 18.75 1048.59375 40.925781 1048.59375 68.179688 C 1048.59375 95.4375 1026.417969 117.609375 999.164062 117.609375 C 997.414062 117.609375 996 119.023438 996 120.773438 C 996 148.027344 973.828125 170.203125 946.570312 170.203125 C 919.316406 170.203125 897.140625 148.027344 897.140625 120.773438 C 897.140625 119.023438 895.726562 117.609375 893.980469 117.609375 C 866.722656 117.609375 844.546875 95.4375 844.546875 68.179688 C 844.546875 40.925781 866.722656 18.75 893.980469 18.75 Z M 890.898438 123.820312 C 892.144531 146.734375 907.304688 165.996094 928.046875 173.316406 C 907.304688 180.632812 892.144531 199.898438 890.898438 222.8125 C 867.984375 224.058594 848.722656 239.214844 841.402344 259.960938 C 834.082031 239.214844 814.820312 224.058594 791.90625 222.8125 C 790.660156 199.898438 775.5 180.632812 754.757812 173.316406 C 775.5 165.996094 790.660156 146.734375 791.90625 123.820312 C 814.820312 122.574219 834.082031 107.414062 841.402344 86.671875 C 848.722656 107.414062 868 122.574219 890.898438 123.820312 Z M 683.675781 18.75 C 685.425781 18.75 686.835938 17.335938 686.835938 15.585938 C 686.835938 -11.667969 709.011719 -33.84375 736.265625 -33.84375 C 763.523438 -33.84375 785.695312 -11.667969 785.695312 15.585938 C 785.695312 17.335938 787.109375 18.75 788.859375 18.75 C 816.117188 18.75 838.289062 40.925781 838.289062 68.179688 C 838.289062 95.4375 816.117188 117.609375 788.859375 117.609375 C 787.109375 117.609375 785.695312 119.023438 785.695312 120.773438 C 785.695312 148.027344 763.523438 170.203125 736.265625 170.203125 C 709.011719 170.203125 686.835938 148.027344 686.835938 120.773438 C 686.835938 119.023438 685.425781 117.609375 683.675781 117.609375 C 656.417969 117.609375 634.246094 95.4375 634.246094 68.179688 C 634.246094 40.925781 656.417969 18.75 683.675781 18.75 Z M 680.597656 123.820312 C 681.839844 146.734375 697 165.996094 717.742188 173.316406 C 697 180.632812 681.839844 199.898438 680.597656 222.8125 C 657.679688 224.058594 638.417969 239.214844 631.097656 259.960938 C 623.78125 239.214844 604.515625 224.058594 581.601562 222.8125 C 580.355469 199.898438 565.199219 180.632812 544.453125 173.316406 C 565.199219 165.996094 580.355469 146.734375 581.601562 123.820312 C 604.515625 122.574219 623.78125 107.414062 631.097656 86.671875 C 638.417969 107.414062 657.679688 122.574219 680.597656 123.820312 Z M 473.371094 18.75 C 475.121094 18.75 476.535156 17.335938 476.535156 15.585938 C 476.535156 -11.667969 498.707031 -33.84375 525.964844 -33.84375 C 553.21875 -33.84375 575.394531 -11.667969 575.394531 15.585938 C 575.394531 17.335938 576.804688 18.75 578.554688 18.75 C 605.8125 18.75 627.984375 40.925781 627.984375 68.179688 C 627.984375 95.4375 605.8125 117.609375 578.554688 117.609375 C 576.804688 117.609375 575.394531 119.023438 575.394531 120.773438 C 575.394531 148.027344 553.21875 170.203125 525.964844 170.203125 C 498.707031 170.203125 476.535156 148.027344 476.535156 120.773438 C 476.535156 119.023438 475.121094 117.609375 473.371094 117.609375 C 446.113281 117.609375 423.941406 95.4375 423.941406 68.179688 C 423.941406 40.925781 446.113281 18.75 473.371094 18.75 Z M 470.292969 123.820312 C 471.535156 146.734375 486.695312 165.996094 507.441406 173.316406 C 486.695312 180.632812 471.535156 199.898438 470.292969 222.8125 C 447.378906 224.058594 428.113281 239.214844 420.792969 259.960938 C 413.476562 239.214844 394.210938 224.058594 371.296875 222.8125 C 370.050781 199.898438 354.894531 180.632812 334.148438 173.316406 C 354.894531 165.996094 370.050781 146.734375 371.296875 123.820312 C 394.210938 122.574219 413.476562 107.414062 420.792969 86.671875 C 428.113281 107.414062 447.378906 122.574219 470.292969 123.820312 Z M 263.066406 18.75 C 264.816406 18.75 266.230469 17.335938 266.230469 15.585938 C 266.230469 -11.667969 288.402344 -33.84375 315.660156 -33.84375 C 342.914062 -33.84375 365.089844 -11.667969 365.089844 15.585938 C 365.089844 17.335938 366.503906 18.75 368.253906 18.75 C 395.507812 18.75 417.683594 40.925781 417.683594 68.179688 C 417.683594 95.4375 395.507812 117.609375 368.253906 117.609375 C 366.503906 117.609375 365.089844 119.023438 365.089844 120.773438 C 365.089844 148.027344 342.914062 170.203125 315.660156 170.203125 C 288.402344 170.203125 266.230469 148.027344 266.230469 120.773438 C 266.230469 119.023438 264.816406 117.609375 263.066406 117.609375 C 235.8125 117.609375 213.636719 95.4375 213.636719 68.179688 C 213.636719 40.925781 235.8125 18.75 263.066406 18.75 Z M 259.988281 123.820312 C 261.234375 146.734375 276.390625 165.996094 297.136719 173.316406 C 276.390625 180.632812 261.234375 199.898438 259.988281 222.8125 C 237.074219 224.058594 217.808594 239.214844 210.492188 259.960938 C 203.171875 239.214844 183.90625 224.058594 160.992188 222.8125 C 159.75 199.898438 144.589844 180.632812 123.84375 173.316406 C 144.589844 165.996094 159.75 146.734375 160.992188 123.820312 C 183.90625 122.574219 203.171875 107.414062 210.492188 86.671875 C 217.808594 107.414062 237.074219 122.574219 259.988281 123.820312 Z M 55.910156 120.738281 C 55.910156 118.988281 54.496094 117.578125 52.746094 117.578125 C 25.492188 117.578125 3.316406 95.402344 3.316406 68.148438 C 3.316406 40.890625 25.492188 18.71875 52.746094 18.71875 C 54.496094 18.71875 55.910156 17.304688 55.910156 15.554688 C 55.910156 -11.699219 78.082031 -33.875 105.339844 -33.875 C 132.59375 -33.875 154.769531 -11.699219 154.769531 15.554688 C 154.769531 17.304688 156.179688 18.71875 157.929688 18.71875 C 185.1875 18.71875 207.359375 40.890625 207.359375 68.148438 C 207.359375 95.402344 185.1875 117.578125 157.929688 117.578125 C 156.179688 117.578125 154.769531 118.988281 154.769531 120.738281 C 154.769531 147.996094 132.59375 170.167969 105.339844 170.167969 C 78.082031 170.167969 55.910156 147.996094 55.910156 120.738281 Z M 55.910156 331.042969 C 55.910156 329.292969 54.496094 327.882812 52.746094 327.882812 C 25.492188 327.882812 3.316406 305.707031 3.316406 278.449219 C 3.316406 251.195312 25.492188 229.019531 52.746094 229.019531 C 54.496094 229.019531 55.910156 227.609375 55.910156 225.859375 C 55.910156 198.601562 78.082031 176.429688 105.339844 176.429688 C 132.59375 176.429688 154.769531 198.601562 154.769531 225.859375 C 154.769531 227.609375 156.179688 229.019531 157.929688 229.019531 C 185.1875 229.019531 207.359375 251.195312 207.359375 278.449219 C 207.359375 305.707031 185.1875 327.882812 157.929688 327.882812 C 156.179688 327.882812 154.769531 329.292969 154.769531 331.042969 C 154.769531 358.300781 132.59375 380.472656 105.339844 380.472656 C 78.082031 380.472656 55.910156 358.300781 55.910156 331.042969 Z M 55.910156 541.347656 C 55.910156 539.597656 54.496094 538.183594 52.746094 538.183594 C 25.492188 538.183594 3.316406 516.011719 3.316406 488.753906 C 3.316406 461.5 25.492188 439.324219 52.746094 439.324219 C 54.496094 439.324219 55.910156 437.910156 55.910156 436.164062 C 55.910156 408.90625 78.082031 386.730469 105.339844 386.730469 C 132.59375 386.730469 154.769531 408.90625 154.769531 436.164062 C 154.769531 437.910156 156.179688 439.324219 157.929688 439.324219 C 185.1875 439.324219 207.359375 461.5 207.359375 488.753906 C 207.359375 516.011719 185.1875 538.183594 157.929688 538.183594 C 156.179688 538.183594 154.769531 539.597656 154.769531 541.347656 C 154.769531 568.601562 132.59375 590.777344 105.339844 590.777344 C 78.082031 590.777344 55.910156 568.601562 55.910156 541.347656 Z M 55.910156 751.652344 C 55.910156 749.902344 54.496094 748.488281 52.746094 748.488281 C 25.492188 748.488281 3.316406 726.316406 3.316406 699.058594 C 3.316406 671.804688 25.492188 649.628906 52.746094 649.628906 C 54.496094 649.628906 55.910156 648.214844 55.910156 646.464844 C 55.910156 619.210938 78.082031 597.035156 105.339844 597.035156 C 132.59375 597.035156 154.769531 619.210938 154.769531 646.464844 C 154.769531 648.214844 156.179688 649.628906 157.929688 649.628906 C 185.1875 649.628906 207.359375 671.804688 207.359375 699.058594 C 207.359375 726.316406 185.1875 748.488281 157.929688 748.488281 C 156.179688 748.488281 154.769531 749.902344 154.769531 751.652344 C 154.769531 778.90625 132.59375 801.082031 105.339844 801.082031 C 78.082031 801.082031 55.910156 778.90625 55.910156 751.652344 Z M 55.910156 961.957031 C 55.910156 960.207031 54.496094 958.792969 52.746094 958.792969 C 25.492188 958.792969 3.316406 936.617188 3.316406 909.363281 C 3.316406 882.109375 25.492188 859.933594 52.746094 859.933594 C 54.496094 859.933594 55.910156 858.519531 55.910156 856.769531 C 55.910156 829.515625 78.082031 807.339844 105.339844 807.339844 C 132.59375 807.339844 154.769531 829.515625 154.769531 856.769531 C 154.769531 858.519531 156.179688 859.933594 157.929688 859.933594 C 185.1875 859.933594 207.359375 882.109375 207.359375 909.363281 C 207.359375 936.617188 185.1875 958.792969 157.929688 958.792969 C 156.179688 958.792969 154.769531 960.207031 154.769531 961.957031 C 154.769531 989.210938 132.59375 1011.386719 105.339844 1011.386719 C 78.082031 1011.386719 55.910156 989.210938 55.910156 961.957031 Z M 55.910156 1172.261719 C 55.910156 1170.511719 54.496094 1169.097656 52.746094 1169.097656 C 25.492188 1169.097656 3.316406 1146.921875 3.316406 1119.667969 C 3.316406 1092.410156 25.492188 1070.238281 52.746094 1070.238281 C 54.496094 1070.238281 55.910156 1068.824219 55.910156 1067.074219 C 55.910156 1039.820312 78.082031 1017.644531 105.339844 1017.644531 C 132.59375 1017.644531 154.769531 1039.820312 154.769531 1067.074219 C 154.769531 1068.824219 156.179688 1070.238281 157.929688 1070.238281 C 185.1875 1070.238281 207.359375 1092.410156 207.359375 1119.667969 C 207.359375 1146.921875 185.1875 1169.097656 157.929688 1169.097656 C 156.179688 1169.097656 154.769531 1170.511719 154.769531 1172.261719 C 154.769531 1199.515625 132.59375 1221.691406 105.339844 1221.691406 C 78.082031 1221.691406 55.910156 1199.515625 55.910156 1172.261719 Z M 55.910156 1382.5625 C 55.910156 1380.8125 54.496094 1379.402344 52.746094 1379.402344 C 25.492188 1379.402344 3.316406 1357.226562 3.316406 1329.972656 C 3.316406 1302.714844 25.492188 1280.542969 52.746094 1280.542969 C 54.496094 1280.542969 55.910156 1279.128906 55.910156 1277.378906 C 55.910156 1250.121094 78.082031 1227.949219 105.339844 1227.949219 C 132.59375 1227.949219 154.769531 1250.121094 154.769531 1277.378906 C 154.769531 1279.128906 156.179688 1280.542969 157.929688 1280.542969 C 185.1875 1280.542969 207.359375 1302.714844 207.359375 1329.972656 C 207.359375 1357.226562 185.1875 1379.402344 157.929688 1379.402344 C 156.179688 1379.402344 154.769531 1380.8125 154.769531 1382.5625 C 154.769531 1409.820312 132.59375 1431.992188 105.339844 1431.992188 C 78.082031 1431.992188 55.910156 1409.820312 55.910156 1382.5625 Z M 157.898438 1589.707031 C 156.148438 1589.707031 154.734375 1591.117188 154.734375 1592.867188 C 154.734375 1620.125 132.558594 1642.296875 105.304688 1642.296875 C 78.050781 1642.296875 55.875 1620.125 55.875 1592.867188 C 55.875 1591.117188 54.460938 1589.707031 52.710938 1589.707031 C 25.457031 1589.707031 3.28125 1567.53125 3.28125 1540.273438 C 3.28125 1513.019531 25.457031 1490.84375 52.710938 1490.84375 C 54.460938 1490.84375 55.875 1489.433594 55.875 1487.683594 C 55.875 1460.425781 78.050781 1438.253906 105.304688 1438.253906 C 132.558594 1438.253906 154.734375 1460.425781 154.734375 1487.683594 C 154.734375 1489.433594 156.148438 1490.84375 157.898438 1490.84375 C 185.152344 1490.84375 207.328125 1513.019531 207.328125 1540.273438 C 207.328125 1567.53125 185.152344 1589.707031 157.898438 1589.707031 Z M 210.472656 1521.785156 C 203.15625 1501.039062 183.890625 1485.882812 160.976562 1484.636719 C 159.730469 1461.722656 144.574219 1442.441406 123.828125 1435.125 C 144.574219 1427.804688 159.730469 1408.523438 160.976562 1385.609375 C 183.890625 1384.363281 203.15625 1369.207031 210.472656 1348.460938 C 217.792969 1369.207031 237.054688 1384.363281 259.972656 1385.609375 C 261.214844 1408.523438 276.375 1427.804688 297.117188 1435.125 C 276.375 1442.441406 261.214844 1461.722656 259.972656 1484.636719 C 237.054688 1485.882812 217.792969 1501.039062 210.472656 1521.785156 Z M 368.203125 1589.707031 C 366.453125 1589.707031 365.039062 1591.117188 365.039062 1592.867188 C 365.039062 1620.125 342.863281 1642.296875 315.609375 1642.296875 C 288.351562 1642.296875 266.179688 1620.125 266.179688 1592.867188 C 266.179688 1591.117188 264.765625 1589.707031 263.015625 1589.707031 C 235.761719 1589.707031 213.585938 1567.53125 213.585938 1540.273438 C 213.585938 1513.019531 235.761719 1490.84375 263.015625 1490.84375 C 264.765625 1490.84375 266.179688 1489.433594 266.179688 1487.683594 C 266.179688 1460.425781 288.351562 1438.253906 315.609375 1438.253906 C 342.863281 1438.253906 365.039062 1460.425781 365.039062 1487.683594 C 365.039062 1489.433594 366.453125 1490.84375 368.203125 1490.84375 C 395.457031 1490.84375 417.632812 1513.019531 417.632812 1540.273438 C 417.632812 1567.53125 395.457031 1589.707031 368.203125 1589.707031 Z M 420.777344 1521.785156 C 413.460938 1501.039062 394.195312 1485.882812 371.28125 1484.636719 C 370.035156 1461.722656 354.875 1442.441406 334.132812 1435.125 C 354.875 1427.804688 370.035156 1408.523438 371.28125 1385.609375 C 394.195312 1384.363281 413.460938 1369.207031 420.777344 1348.460938 C 428.097656 1369.207031 447.359375 1384.363281 470.273438 1385.609375 C 471.519531 1408.523438 486.679688 1427.804688 507.421875 1435.125 C 486.679688 1442.441406 471.519531 1461.722656 470.273438 1484.636719 C 447.359375 1485.882812 428.097656 1501.039062 420.777344 1521.785156 Z M 578.503906 1589.707031 C 576.757812 1589.707031 575.34375 1591.117188 575.34375 1592.867188 C 575.34375 1620.125 553.167969 1642.296875 525.914062 1642.296875 C 498.65625 1642.296875 476.484375 1620.125 476.484375 1592.867188 C 476.484375 1591.117188 475.070312 1589.707031 473.320312 1589.707031 C 446.066406 1589.707031 423.890625 1567.53125 423.890625 1540.273438 C 423.890625 1513.019531 446.066406 1490.84375 473.320312 1490.84375 C 475.070312 1490.84375 476.484375 1489.433594 476.484375 1487.683594 C 476.484375 1460.425781 498.65625 1438.253906 525.914062 1438.253906 C 553.167969 1438.253906 575.34375 1460.425781 575.34375 1487.683594 C 575.34375 1489.433594 576.757812 1490.84375 578.503906 1490.84375 C 605.761719 1490.84375 627.9375 1513.019531 627.9375 1540.273438 C 627.9375 1567.53125 605.761719 1589.707031 578.503906 1589.707031 Z M 631.082031 1521.785156 C 623.761719 1501.039062 604.5 1485.882812 581.585938 1484.636719 C 580.339844 1461.722656 565.179688 1442.441406 544.4375 1435.125 C 565.179688 1427.804688 580.339844 1408.523438 581.585938 1385.609375 C 604.5 1384.363281 623.761719 1369.207031 631.082031 1348.460938 C 638.398438 1369.207031 657.664062 1384.363281 680.578125 1385.609375 C 681.824219 1408.523438 696.984375 1427.804688 717.726562 1435.125 C 696.984375 1442.441406 681.824219 1461.722656 680.578125 1484.636719 C 657.664062 1485.882812 638.398438 1501.039062 631.082031 1521.785156 Z M 788.808594 1589.707031 C 787.058594 1589.707031 785.648438 1591.117188 785.648438 1592.867188 C 785.648438 1620.125 763.472656 1642.296875 736.21875 1642.296875 C 708.960938 1642.296875 686.785156 1620.125 686.785156 1592.867188 C 686.785156 1591.117188 685.375 1589.707031 683.625 1589.707031 C 656.367188 1589.707031 634.195312 1567.53125 634.195312 1540.273438 C 634.195312 1513.019531 656.367188 1490.84375 683.625 1490.84375 C 685.375 1490.84375 686.785156 1489.433594 686.785156 1487.683594 C 686.785156 1460.425781 708.960938 1438.253906 736.21875 1438.253906 C 763.472656 1438.253906 785.648438 1460.425781 785.648438 1487.683594 C 785.648438 1489.433594 787.058594 1490.84375 788.808594 1490.84375 C 816.066406 1490.84375 838.238281 1513.019531 838.238281 1540.273438 C 838.238281 1567.53125 816.066406 1589.707031 788.808594 1589.707031 Z M 841.386719 1521.785156 C 834.066406 1501.039062 814.804688 1485.882812 791.886719 1484.636719 C 790.644531 1461.722656 775.484375 1442.441406 754.742188 1435.125 C 775.484375 1427.804688 790.644531 1408.523438 791.886719 1385.609375 C 814.804688 1384.363281 834.066406 1369.207031 841.386719 1348.460938 C 848.703125 1369.207031 867.984375 1384.363281 890.882812 1385.609375 C 892.128906 1408.523438 907.285156 1427.804688 928.03125 1435.125 C 907.285156 1442.441406 892.128906 1461.722656 890.882812 1484.636719 C 867.96875 1485.882812 848.703125 1501.039062 841.386719 1521.785156 Z M 999.113281 1589.707031 C 997.363281 1589.707031 995.949219 1591.117188 995.949219 1592.867188 C 995.949219 1620.125 973.777344 1642.296875 946.519531 1642.296875 C 919.265625 1642.296875 897.089844 1620.125 897.089844 1592.867188 C 897.089844 1591.117188 895.679688 1589.707031 893.929688 1589.707031 C 866.671875 1589.707031 844.5 1567.53125 844.5 1540.273438 C 844.5 1513.019531 866.671875 1490.84375 893.929688 1490.84375 C 895.679688 1490.84375 897.089844 1489.433594 897.089844 1487.683594 C 897.089844 1460.425781 919.265625 1438.253906 946.519531 1438.253906 C 973.777344 1438.253906 995.949219 1460.425781 995.949219 1487.683594 C 995.949219 1489.433594 997.363281 1490.84375 999.113281 1490.84375 C 1026.371094 1490.84375 1048.542969 1513.019531 1048.542969 1540.273438 C 1048.542969 1567.53125 1026.371094 1589.707031 999.113281 1589.707031 Z M 1051.691406 1521.785156 C 1044.371094 1501.039062 1025.089844 1485.882812 1002.191406 1484.636719 C 1000.949219 1461.722656 985.789062 1442.441406 965.042969 1435.125 C 985.789062 1427.804688 1000.949219 1408.523438 1002.191406 1385.609375 C 1025.105469 1384.363281 1044.371094 1369.207031 1051.691406 1348.460938 C 1059.007812 1369.207031 1078.289062 1384.363281 1101.1875 1385.609375 C 1102.433594 1408.523438 1117.589844 1427.804688 1138.335938 1435.125 C 1117.589844 1442.441406 1102.433594 1461.722656 1101.1875 1484.636719 C 1078.273438 1485.882812 1059.007812 1501.039062 1051.691406 1521.785156 Z M 1209.417969 1589.707031 C 1207.667969 1589.707031 1206.253906 1591.117188 1206.253906 1592.867188 C 1206.253906 1620.125 1184.082031 1642.296875 1156.824219 1642.296875 C 1129.570312 1642.296875 1107.394531 1620.125 1107.394531 1592.867188 C 1107.394531 1591.117188 1105.980469 1589.707031 1104.230469 1589.707031 C 1076.976562 1589.707031 1054.800781 1567.53125 1054.800781 1540.273438 C 1054.800781 1513.019531 1076.976562 1490.84375 1104.230469 1490.84375 C 1105.980469 1490.84375 1107.394531 1489.433594 1107.394531 1487.683594 C 1107.394531 1460.425781 1129.570312 1438.253906 1156.824219 1438.253906 C 1184.082031 1438.253906 1206.253906 1460.425781 1206.253906 1487.683594 C 1206.253906 1489.433594 1207.667969 1490.84375 1209.417969 1490.84375 C 1236.671875 1490.84375 1258.847656 1513.019531 1258.847656 1540.273438 C 1258.847656 1567.53125 1236.671875 1589.707031 1209.417969 1589.707031 Z M 1261.992188 1521.785156 C 1254.675781 1501.039062 1235.394531 1485.882812 1212.496094 1484.636719 C 1211.25 1461.722656 1196.09375 1442.441406 1175.347656 1435.125 C 1196.09375 1427.804688 1211.25 1408.523438 1212.496094 1385.609375 C 1235.410156 1384.363281 1254.675781 1369.207031 1261.992188 1348.460938 C 1269.3125 1369.207031 1288.59375 1384.363281 1311.492188 1385.609375 C 1312.734375 1408.523438 1327.894531 1427.804688 1348.640625 1435.125 C 1327.894531 1442.441406 1312.734375 1461.722656 1311.492188 1484.636719 C 1288.578125 1485.882812 1269.3125 1501.039062 1261.992188 1521.785156 Z M 1419.722656 1589.707031 C 1417.972656 1589.707031 1416.558594 1591.117188 1416.558594 1592.867188 C 1416.558594 1620.125 1394.382812 1642.296875 1367.128906 1642.296875 C 1339.875 1642.296875 1317.699219 1620.125 1317.699219 1592.867188 C 1317.699219 1591.117188 1316.285156 1589.707031 1314.535156 1589.707031 C 1287.28125 1589.707031 1265.105469 1567.53125 1265.105469 1540.273438 C 1265.105469 1513.019531 1287.28125 1490.84375 1314.535156 1490.84375 C 1316.285156 1490.84375 1317.699219 1489.433594 1317.699219 1487.683594 C 1317.699219 1460.425781 1339.875 1438.253906 1367.128906 1438.253906 C 1394.382812 1438.253906 1416.558594 1460.425781 1416.558594 1487.683594 C 1416.558594 1489.433594 1417.972656 1490.84375 1419.722656 1490.84375 C 1446.976562 1490.84375 1469.152344 1513.019531 1469.152344 1540.273438 C 1469.152344 1567.53125 1446.976562 1589.707031 1419.722656 1589.707031 Z M 1472.296875 1521.785156 C 1464.980469 1501.039062 1445.699219 1485.882812 1422.800781 1484.636719 C 1421.554688 1461.722656 1406.398438 1442.441406 1385.652344 1435.125 C 1406.398438 1427.804688 1421.554688 1408.523438 1422.800781 1385.609375 C 1445.714844 1384.363281 1464.980469 1369.207031 1472.296875 1348.460938 C 1479.617188 1369.207031 1498.898438 1384.363281 1521.792969 1385.609375 C 1523.039062 1408.523438 1538.199219 1427.804688 1558.941406 1435.125 C 1538.199219 1442.441406 1523.039062 1461.722656 1521.792969 1484.636719 C 1498.878906 1485.882812 1479.617188 1501.039062 1472.296875 1521.785156 Z M 1626.878906 1487.699219 C 1626.878906 1489.449219 1628.292969 1490.863281 1630.042969 1490.863281 C 1657.296875 1490.863281 1679.472656 1513.035156 1679.472656 1540.292969 C 1679.472656 1567.546875 1657.296875 1589.722656 1630.042969 1589.722656 C 1628.292969 1589.722656 1626.878906 1591.136719 1626.878906 1592.886719 C 1626.878906 1620.140625 1604.707031 1642.316406 1577.449219 1642.316406 C 1550.195312 1642.316406 1528.019531 1620.140625 1528.019531 1592.886719 C 1528.019531 1591.136719 1526.605469 1589.722656 1524.855469 1589.722656 C 1497.601562 1589.722656 1475.425781 1567.546875 1475.425781 1540.292969 C 1475.425781 1513.035156 1497.601562 1490.863281 1524.855469 1490.863281 C 1526.605469 1490.863281 1528.019531 1489.449219 1528.019531 1487.699219 C 1528.019531 1460.445312 1550.195312 1438.269531 1577.449219 1438.269531 C 1604.707031 1438.269531 1626.878906 1460.445312 1626.878906 1487.699219 Z M 1626.878906 1277.394531 C 1626.878906 1279.144531 1628.292969 1280.558594 1630.042969 1280.558594 C 1657.296875 1280.558594 1679.472656 1302.734375 1679.472656 1329.988281 C 1679.472656 1357.242188 1657.296875 1379.417969 1630.042969 1379.417969 C 1628.292969 1379.417969 1626.878906 1380.832031 1626.878906 1382.582031 C 1626.878906 1409.835938 1604.707031 1432.011719 1577.449219 1432.011719 C 1550.195312 1432.011719 1528.019531 1409.835938 1528.019531 1382.582031 C 1528.019531 1380.832031 1526.605469 1379.417969 1524.855469 1379.417969 C 1497.601562 1379.417969 1475.425781 1357.242188 1475.425781 1329.988281 C 1475.425781 1302.734375 1497.601562 1280.558594 1524.855469 1280.558594 C 1526.605469 1280.558594 1528.019531 1279.144531 1528.019531 1277.394531 C 1528.019531 1250.140625 1550.195312 1227.964844 1577.449219 1227.964844 C 1604.707031 1227.964844 1626.878906 1250.140625 1626.878906 1277.394531 Z M 1626.878906 1067.089844 C 1626.878906 1068.839844 1628.292969 1070.253906 1630.042969 1070.253906 C 1657.296875 1070.253906 1679.472656 1092.429688 1679.472656 1119.683594 C 1679.472656 1146.9375 1657.296875 1169.113281 1630.042969 1169.113281 C 1628.292969 1169.113281 1626.878906 1170.527344 1626.878906 1172.277344 C 1626.878906 1199.53125 1604.707031 1221.707031 1577.449219 1221.707031 C 1550.195312 1221.707031 1528.019531 1199.53125 1528.019531 1172.277344 C 1528.019531 1170.527344 1526.605469 1169.113281 1524.855469 1169.113281 C 1497.601562 1169.113281 1475.425781 1146.9375 1475.425781 1119.683594 C 1475.425781 1092.429688 1497.601562 1070.253906 1524.855469 1070.253906 C 1526.605469 1070.253906 1528.019531 1068.839844 1528.019531 1067.089844 C 1528.019531 1039.835938 1550.195312 1017.660156 1577.449219 1017.660156 C 1604.707031 1017.660156 1626.878906 1039.835938 1626.878906 1067.089844 Z M 1626.878906 856.789062 C 1626.878906 858.535156 1628.292969 859.949219 1630.042969 859.949219 C 1657.296875 859.949219 1679.472656 882.125 1679.472656 909.378906 C 1679.472656 936.636719 1657.296875 958.808594 1630.042969 958.808594 C 1628.292969 958.808594 1626.878906 960.222656 1626.878906 961.972656 C 1626.878906 989.226562 1604.707031 1011.402344 1577.449219 1011.402344 C 1550.195312 1011.402344 1528.019531 989.226562 1528.019531 961.972656 C 1528.019531 960.222656 1526.605469 958.808594 1524.855469 958.808594 C 1497.601562 958.808594 1475.425781 936.636719 1475.425781 909.378906 C 1475.425781 882.125 1497.601562 859.949219 1524.855469 859.949219 C 1526.605469 859.949219 1528.019531 858.535156 1528.019531 856.789062 C 1528.019531 829.53125 1550.195312 807.355469 1577.449219 807.355469 C 1604.707031 807.355469 1626.878906 829.53125 1626.878906 856.789062 Z M 1626.878906 646.484375 C 1626.878906 648.234375 1628.292969 649.644531 1630.042969 649.644531 C 1657.296875 649.644531 1679.472656 671.820312 1679.472656 699.074219 C 1679.472656 726.332031 1657.296875 748.503906 1630.042969 748.503906 C 1628.292969 748.503906 1626.878906 749.917969 1626.878906 751.667969 C 1626.878906 778.925781 1604.707031 801.097656 1577.449219 801.097656 C 1550.195312 801.097656 1528.019531 778.925781 1528.019531 751.667969 C 1528.019531 749.917969 1526.605469 748.503906 1524.855469 748.503906 C 1497.601562 748.503906 1475.425781 726.332031 1475.425781 699.074219 C 1475.425781 671.820312 1497.601562 649.644531 1524.855469 649.644531 C 1526.605469 649.644531 1528.019531 648.234375 1528.019531 646.484375 C 1528.019531 619.226562 1550.195312 597.054688 1577.449219 597.054688 C 1604.707031 597.054688 1626.878906 619.226562 1626.878906 646.484375 Z M 1626.878906 436.179688 C 1626.878906 437.929688 1628.292969 439.34375 1630.042969 439.34375 C 1657.296875 439.34375 1679.472656 461.515625 1679.472656 488.773438 C 1679.472656 516.027344 1657.296875 538.203125 1630.042969 538.203125 C 1628.292969 538.203125 1626.878906 539.613281 1626.878906 541.363281 C 1626.878906 568.621094 1604.707031 590.792969 1577.449219 590.792969 C 1550.195312 590.792969 1528.019531 568.621094 1528.019531 541.363281 C 1528.019531 539.613281 1526.605469 538.203125 1524.855469 538.203125 C 1497.601562 538.203125 1475.425781 516.027344 1475.425781 488.773438 C 1475.425781 461.515625 1497.601562 439.34375 1524.855469 439.34375 C 1526.605469 439.34375 1528.019531 437.929688 1528.019531 436.179688 C 1528.019531 408.921875 1550.195312 386.75 1577.449219 386.75 C 1604.707031 386.75 1626.878906 408.921875 1626.878906 436.179688 Z M 1626.878906 225.875 C 1626.878906 227.625 1628.292969 229.039062 1630.042969 229.039062 C 1657.296875 229.039062 1679.472656 251.210938 1679.472656 278.46875 C 1679.472656 305.722656 1657.296875 327.898438 1630.042969 327.898438 C 1628.292969 327.898438 1626.878906 329.3125 1626.878906 331.0625 C 1626.878906 358.316406 1604.707031 380.492188 1577.449219 380.492188 C 1550.195312 380.492188 1528.019531 358.316406 1528.019531 331.0625 C 1528.019531 329.3125 1526.605469 327.898438 1524.855469 327.898438 C 1497.601562 327.898438 1475.425781 305.722656 1475.425781 278.46875 C 1475.425781 251.210938 1497.601562 229.039062 1524.855469 229.039062 C 1526.605469 229.039062 1528.019531 227.625 1528.019531 225.875 C 1528.019531 198.621094 1550.195312 176.445312 1577.449219 176.445312 C 1604.707031 176.445312 1626.878906 198.621094 1626.878906 225.875 Z M 1630.042969 117.558594 C 1628.292969 117.558594 1626.878906 118.972656 1626.878906 120.722656 C 1626.878906 147.976562 1604.707031 170.152344 1577.449219 170.152344 C 1550.195312 170.152344 1528.019531 147.976562 1528.019531 120.722656 C 1528.019531 118.972656 1526.605469 117.558594 1524.855469 117.558594 C 1497.601562 117.558594 1475.425781 95.386719 1475.425781 68.128906 C 1475.425781 40.875 1497.601562 18.699219 1524.855469 18.699219 C 1526.605469 18.699219 1528.019531 17.289062 1528.019531 15.539062 C 1528.019531 -11.71875 1550.195312 -33.890625 1577.449219 -33.890625 C 1604.707031 -33.890625 1626.878906 -11.71875 1626.878906 15.539062 C 1626.878906 17.289062 1628.292969 18.699219 1630.042969 18.699219 C 1657.296875 18.699219 1679.472656 40.875 1679.472656 68.128906 C 1679.472656 95.386719 1657.296875 117.558594 1630.042969 117.558594 Z M 1630.042969 117.558594 "/></g></g></svg>